{"glyphs":{"0":{"ha":998,"x_min":0,"x_max":0,"o":"m 499 -16 b 53 547 233 -16 53 218 b 499 1109 53 876 233 1109 b 945 547 765 1109 945 876 b 499 -16 945 218 765 -16 m 498 157 b 773 547 663 157 773 319 b 498 937 773 775 663 937 b 224 547 333 937 224 775 b 498 157 224 319 333 157 "},"1":{"ha":477,"x_min":0,"x_max":0,"o":"m 372 1103 l 372 0 l 201 0 l 201 883 l 53 839 l 53 1018 l 322 1103 "},"2":{"ha":924,"x_min":0,"x_max":0,"o":"m 872 171 l 872 0 l 53 0 l 53 37 b 686 723 503 401 686 590 b 481 938 686 846 585 938 b 251 705 353 938 251 836 l 94 743 b 475 1109 94 948 264 1109 b 858 732 690 1109 858 933 b 418 171 858 543 665 329 "},"3":{"ha":846,"x_min":0,"x_max":0,"o":"m 593 610 b 793 326 707 569 793 476 b 425 -10 793 146 631 -10 b 53 260 248 -10 90 110 l 221 303 b 420 159 241 220 326 159 b 620 338 536 159 620 245 b 297 554 620 471 486 555 l 324 654 b 564 819 451 654 564 715 b 418 956 564 899 498 956 b 279 842 350 956 292 909 l 103 879 b 419 1124 133 1009 256 1124 b 736 831 591 1124 736 1000 b 593 610 736 721 672 642 "},"4":{"ha":923,"x_min":0,"x_max":0,"o":"m 891 235 l 771 235 l 771 0 l 600 0 l 600 235 l 16 235 l 420 1097 l 602 1096 l 273 406 l 600 406 l 600 757 l 771 757 l 771 406 l 891 406 "},"5":{"ha":881,"x_min":0,"x_max":0,"o":"m 449 762 b 829 384 680 762 829 601 b 428 -9 829 151 649 -9 b 53 221 267 -9 113 81 l 222 275 b 420 161 259 207 346 161 b 650 384 530 161 650 238 b 425 596 650 512 559 596 b 186 468 328 596 227 547 l 90 526 l 170 1094 l 734 1094 l 734 923 l 300 923 l 265 698 b 449 762 316 745 378 762 "},"6":{"ha":874,"x_min":0,"x_max":0,"o":"m 486 701 b 822 356 657 701 822 561 b 435 -14 822 157 651 -14 b 53 348 222 -14 53 134 b 421 1093 53 477 106 528 l 616 1093 l 376 680 b 486 701 412 694 449 701 m 438 157 b 652 361 555 157 652 253 b 439 569 652 475 555 569 b 224 361 321 569 224 475 b 438 157 224 252 321 157 "},"7":{"ha":795,"x_min":0,"x_max":0,"o":"m 779 1093 l 779 1061 l 341 0 l 161 0 l 536 926 l 32 926 l 32 1093 "},"8":{"ha":851,"x_min":0,"x_max":0,"o":"m 425 -18 b 53 328 206 -18 53 144 b 273 617 53 494 182 604 b 111 833 190 634 111 724 b 426 1112 111 978 241 1112 b 742 833 610 1112 742 980 b 580 617 742 718 652 632 b 798 327 663 602 798 496 b 425 -18 798 142 643 -18 m 427 694 b 576 821 503 694 576 739 b 427 952 576 903 509 952 b 277 823 344 952 277 903 b 427 694 277 743 347 694 m 425 153 b 626 338 536 153 626 235 b 427 522 626 439 534 522 b 224 336 318 522 224 439 b 425 153 224 235 313 153 "},"9":{"ha":874,"x_min":0,"x_max":0,"o":"m 437 1107 b 822 732 652 1107 822 932 b 454 -1 822 578 764 536 l 258 -1 l 490 401 b 387 382 457 389 422 382 b 53 734 214 382 53 530 b 437 1107 53 934 222 1107 m 436 524 b 650 732 553 524 650 618 b 437 937 650 840 553 937 b 224 732 319 937 224 840 b 436 524 224 618 319 524 "}," ":{"ha":407,"x_min":0,"x_max":0,"o":""},"A":{"ha":1070,"x_min":0,"x_max":0,"o":"m 793 166 l 276 166 l 201 0 l 16 0 l 530 1116 l 540 1116 l 1054 0 l 868 0 m 727 313 l 535 741 l 342 313 "},"a":{"ha":1070,"x_min":0,"x_max":0,"o":"m 868 0 l 1054 0 l 540 1116 l 530 1116 l 16 0 l 201 0 l 276 166 l 793 166 m 342 313 l 535 741 l 727 313 "},"Á":{"ha":1070,"x_min":0,"x_max":0,"o":"m 555 1183 l 431 1183 l 565 1405 l 716 1405 m 793 166 l 276 166 l 201 0 l 16 0 l 530 1116 l 540 1116 l 1054 0 l 868 0 m 727 313 l 535 741 l 342 313 "},"á":{"ha":1070,"x_min":0,"x_max":0,"o":"m 716 1405 l 565 1405 l 431 1183 l 555 1183 m 868 0 l 1054 0 l 540 1116 l 530 1116 l 16 0 l 201 0 l 276 166 l 793 166 m 342 313 l 535 741 l 727 313 "},"Ă":{"ha":1070,"x_min":0,"x_max":0,"o":"m 535 1195 b 341 1390 429 1195 341 1282 l 425 1390 b 535 1274 425 1326 474 1274 b 647 1390 597 1274 647 1326 l 730 1390 b 535 1195 730 1282 642 1195 m 793 166 l 276 166 l 201 0 l 16 0 l 530 1116 l 540 1116 l 1054 0 l 868 0 m 727 313 l 535 741 l 342 313 "},"ă":{"ha":1070,"x_min":0,"x_max":0,"o":"m 535 1195 b 730 1390 642 1195 730 1282 l 647 1390 b 535 1274 647 1326 597 1274 b 425 1390 474 1274 425 1326 l 341 1390 b 535 1195 341 1282 429 1195 m 868 0 l 1054 0 l 540 1116 l 530 1116 l 16 0 l 201 0 l 276 166 l 793 166 m 342 313 l 535 741 l 727 313 "},"Â":{"ha":1070,"x_min":0,"x_max":0,"o":"m 412 1194 l 273 1194 l 486 1392 l 583 1392 l 798 1194 l 658 1194 l 534 1310 m 793 166 l 276 166 l 201 0 l 16 0 l 530 1116 l 540 1116 l 1054 0 l 868 0 m 727 313 l 535 741 l 342 313 "},"â":{"ha":1070,"x_min":0,"x_max":0,"o":"m 534 1310 l 658 1194 l 798 1194 l 583 1392 l 486 1392 l 273 1194 l 412 1194 m 868 0 l 1054 0 l 540 1116 l 530 1116 l 16 0 l 201 0 l 276 166 l 793 166 m 342 313 l 535 741 l 727 313 "},"Ä":{"ha":1070,"x_min":0,"x_max":0,"o":"m 383 1217 b 312 1287 345 1217 312 1249 b 383 1359 312 1326 345 1359 b 454 1287 422 1359 454 1326 b 383 1217 454 1249 422 1217 m 687 1217 b 616 1287 648 1217 616 1249 b 687 1359 616 1326 649 1359 b 759 1287 726 1359 759 1326 b 687 1217 759 1249 726 1217 m 793 166 l 276 166 l 201 0 l 16 0 l 530 1116 l 540 1116 l 1054 0 l 868 0 m 727 313 l 535 741 l 342 313 "},"ä":{"ha":1070,"x_min":0,"x_max":0,"o":"m 383 1217 b 454 1287 422 1217 454 1249 b 383 1359 454 1326 422 1359 b 312 1287 345 1359 312 1326 b 383 1217 312 1249 345 1217 m 687 1217 b 759 1287 726 1217 759 1249 b 687 1359 759 1326 726 1359 b 616 1287 649 1359 616 1326 b 687 1217 616 1249 648 1217 m 868 0 l 1054 0 l 540 1116 l 530 1116 l 16 0 l 201 0 l 276 166 l 793 166 m 342 313 l 535 741 l 727 313 "},"À":{"ha":1070,"x_min":0,"x_max":0,"o":"m 554 1183 l 393 1405 l 544 1405 l 678 1183 m 793 166 l 276 166 l 201 0 l 16 0 l 530 1116 l 540 1116 l 1054 0 l 868 0 m 727 313 l 535 741 l 342 313 "},"à":{"ha":1070,"x_min":0,"x_max":0,"o":"m 678 1183 l 544 1405 l 393 1405 l 554 1183 m 868 0 l 1054 0 l 540 1116 l 530 1116 l 16 0 l 201 0 l 276 166 l 793 166 m 342 313 l 535 741 l 727 313 "},"Ā":{"ha":1070,"x_min":0,"x_max":0,"o":"m 730 1230 l 342 1230 l 342 1319 l 730 1319 m 793 166 l 276 166 l 201 0 l 16 0 l 530 1116 l 540 1116 l 1054 0 l 868 0 m 727 313 l 535 741 l 342 313 "},"ā":{"ha":1070,"x_min":0,"x_max":0,"o":"m 730 1319 l 342 1319 l 342 1230 l 730 1230 m 868 0 l 1054 0 l 540 1116 l 530 1116 l 16 0 l 201 0 l 276 166 l 793 166 m 342 313 l 535 741 l 727 313 "},"Ą":{"ha":1070,"x_min":0,"x_max":0,"o":"m 925 -234 b 997 -224 939 -234 966 -231 l 1019 -342 b 913 -355 980 -351 944 -355 b 732 -208 800 -355 732 -300 b 886 0 732 -115 802 -40 l 868 0 l 793 166 l 276 166 l 201 0 l 16 0 l 530 1116 l 540 1116 l 1054 0 l 1008 0 b 856 -169 915 -62 856 -111 b 925 -234 856 -189 864 -234 m 727 313 l 535 741 l 342 313 "},"ą":{"ha":1070,"x_min":0,"x_max":0,"o":"m 925 -234 b 856 -169 864 -234 856 -189 b 1008 0 856 -111 915 -62 l 1054 0 l 540 1116 l 530 1116 l 16 0 l 201 0 l 276 166 l 793 166 l 868 0 l 886 0 b 732 -208 802 -40 732 -115 b 913 -355 732 -300 800 -355 b 1019 -342 944 -355 980 -351 l 997 -224 b 925 -234 966 -231 939 -234 m 342 313 l 535 741 l 727 313 "},"Å":{"ha":1070,"x_min":0,"x_max":0,"o":"m 536 1162 b 390 1308 456 1162 390 1228 b 536 1454 390 1388 456 1454 b 681 1308 615 1454 681 1388 b 536 1162 681 1229 615 1162 m 536 1380 b 463 1308 496 1380 463 1348 b 536 1236 463 1268 496 1236 b 608 1308 576 1236 608 1268 b 536 1380 608 1348 576 1380 m 793 166 l 276 166 l 201 0 l 16 0 l 530 1116 l 540 1116 l 1054 0 l 868 0 m 727 313 l 535 741 l 342 313 "},"å":{"ha":1070,"x_min":0,"x_max":0,"o":"m 536 1162 b 681 1308 615 1162 681 1229 b 536 1454 681 1388 615 1454 b 390 1308 456 1454 390 1388 b 536 1162 390 1228 456 1162 m 536 1380 b 608 1308 576 1380 608 1348 b 536 1236 608 1268 576 1236 b 463 1308 496 1236 463 1268 b 536 1380 463 1348 496 1380 m 868 0 l 1054 0 l 540 1116 l 530 1116 l 16 0 l 201 0 l 276 166 l 793 166 m 342 313 l 535 741 l 727 313 "},"Ã":{"ha":1070,"x_min":0,"x_max":0,"o":"m 433 1292 b 353 1204 390 1292 366 1257 l 269 1237 b 433 1383 296 1362 381 1383 b 638 1291 535 1383 567 1291 b 718 1379 680 1291 704 1326 l 802 1347 b 637 1200 774 1221 689 1200 b 433 1292 535 1200 504 1292 m 793 166 l 276 166 l 201 0 l 16 0 l 530 1116 l 540 1116 l 1054 0 l 868 0 m 727 313 l 535 741 l 342 313 "},"ã":{"ha":1070,"x_min":0,"x_max":0,"o":"m 433 1292 b 637 1200 504 1292 535 1200 b 802 1347 689 1200 774 1221 l 718 1379 b 638 1291 704 1326 680 1291 b 433 1383 567 1291 535 1383 b 269 1237 381 1383 296 1362 l 353 1204 b 433 1292 366 1257 390 1292 m 868 0 l 1054 0 l 540 1116 l 530 1116 l 16 0 l 201 0 l 276 166 l 793 166 m 342 313 l 535 741 l 727 313 "},"Æ":{"ha":1395,"x_min":0,"x_max":0,"o":"m 842 924 l 842 644 l 1255 644 l 1255 473 l 842 473 l 842 171 l 1321 171 l 1321 0 l 671 0 l 671 178 l 290 178 l 200 0 l 16 0 l 562 1093 l 1321 1093 l 1321 924 m 671 331 l 671 924 l 368 331 "},"æ":{"ha":1395,"x_min":0,"x_max":0,"o":"m 1321 924 l 1321 1093 l 562 1093 l 16 0 l 200 0 l 290 178 l 671 178 l 671 0 l 1321 0 l 1321 171 l 842 171 l 842 473 l 1255 473 l 1255 644 l 842 644 l 842 924 m 368 331 l 671 924 l 671 331 "},"B":{"ha":889,"x_min":0,"x_max":0,"o":"m 597 616 b 858 333 720 616 858 503 b 514 0 858 165 731 0 l 105 0 l 105 1093 l 404 1093 b 720 812 592 1093 720 958 b 597 616 720 694 637 616 m 276 926 l 276 654 l 412 654 b 559 790 496 654 559 712 b 414 926 559 868 491 926 m 498 168 b 690 345 597 168 690 239 b 496 503 690 427 620 503 l 276 503 l 276 168 l 498 168 "},"b":{"ha":889,"x_min":0,"x_max":0,"o":"m 597 616 b 720 812 637 616 720 694 b 404 1093 720 958 592 1093 l 105 1093 l 105 0 l 514 0 b 858 333 731 0 858 165 b 597 616 858 503 720 616 m 414 926 b 559 790 491 926 559 868 b 412 654 559 712 496 654 l 276 654 l 276 926 m 498 168 l 276 168 l 276 503 l 496 503 b 690 345 620 503 690 427 b 498 168 690 239 597 168 "},"C":{"ha":1028,"x_min":0,"x_max":0,"o":"m 620 -18 b 53 546 310 -18 53 237 b 617 1112 53 854 310 1112 b 997 945 759 1110 890 1050 l 897 810 b 614 938 821 887 721 938 b 227 545 416 938 227 764 b 614 155 227 325 418 155 b 898 285 726 155 823 210 l 997 146 b 620 -18 903 54 783 -18 "},"c":{"ha":1028,"x_min":0,"x_max":0,"o":"m 620 -18 b 997 146 783 -18 903 54 l 898 285 b 614 155 823 210 726 155 b 227 545 418 155 227 325 b 614 938 227 764 416 938 b 897 810 721 938 821 887 l 997 945 b 617 1112 890 1050 759 1110 b 53 546 310 1112 53 854 b 620 -18 53 237 310 -18 "},"Ć":{"ha":1028,"x_min":0,"x_max":0,"o":"m 469 1183 l 604 1405 l 755 1405 l 593 1183 m 620 -18 b 53 546 310 -18 53 237 b 617 1112 53 854 310 1112 b 997 945 759 1110 890 1050 l 897 810 b 614 938 821 887 721 938 b 227 545 416 938 227 764 b 614 155 227 325 418 155 b 898 285 726 155 823 210 l 997 146 b 620 -18 903 54 783 -18 "},"ć":{"ha":1028,"x_min":0,"x_max":0,"o":"m 593 1183 l 755 1405 l 604 1405 l 469 1183 m 620 -18 b 997 146 783 -18 903 54 l 898 285 b 614 155 823 210 726 155 b 227 545 418 155 227 325 b 614 938 227 764 416 938 b 897 810 721 938 821 887 l 997 945 b 617 1112 890 1050 759 1110 b 53 546 310 1112 53 854 b 620 -18 53 237 310 -18 "},"Č":{"ha":1028,"x_min":0,"x_max":0,"o":"m 451 1392 l 574 1275 l 697 1392 l 836 1392 l 621 1194 l 526 1194 l 313 1392 m 620 -18 b 53 546 310 -18 53 237 b 617 1112 53 854 310 1112 b 997 945 759 1110 890 1050 l 897 810 b 614 938 821 887 721 938 b 227 545 416 938 227 764 b 614 155 227 325 418 155 b 898 285 726 155 823 210 l 997 146 b 620 -18 903 54 783 -18 "},"č":{"ha":1028,"x_min":0,"x_max":0,"o":"m 313 1392 l 526 1194 l 621 1194 l 836 1392 l 697 1392 l 574 1275 l 451 1392 m 620 -18 b 997 146 783 -18 903 54 l 898 285 b 614 155 823 210 726 155 b 227 545 418 155 227 325 b 614 938 227 764 416 938 b 897 810 721 938 821 887 l 997 945 b 617 1112 890 1050 759 1110 b 53 546 310 1112 53 854 b 620 -18 53 237 310 -18 "},"Ç":{"ha":1028,"x_min":0,"x_max":0,"o":"m 997 146 b 637 -18 906 57 791 -12 l 593 -75 b 623 -73 604 -74 612 -73 b 718 -172 678 -73 718 -115 b 455 -353 718 -267 610 -350 l 412 -248 b 600 -176 543 -244 600 -217 b 542 -138 600 -155 585 -138 b 502 -142 530 -138 517 -139 l 479 -112 l 553 -14 b 53 546 274 20 53 260 b 617 1112 53 854 310 1112 b 997 945 759 1110 890 1050 l 897 810 b 614 938 821 887 721 938 b 227 545 416 938 227 764 b 614 155 227 325 418 155 b 898 285 726 155 823 210 l 997 146 "},"ç":{"ha":1028,"x_min":0,"x_max":0,"o":"m 997 146 l 898 285 b 614 155 823 210 726 155 b 227 545 418 155 227 325 b 614 938 227 764 416 938 b 897 810 721 938 821 887 l 997 945 b 617 1112 890 1050 759 1110 b 53 546 310 1112 53 854 b 553 -14 53 260 274 20 l 479 -112 l 502 -142 b 542 -138 517 -139 530 -138 b 600 -176 585 -138 600 -155 b 412 -248 600 -217 543 -244 l 455 -353 b 718 -172 610 -350 718 -267 b 623 -73 718 -115 678 -73 b 593 -75 612 -73 604 -74 l 637 -18 b 997 146 791 -12 906 57 "},"Ċ":{"ha":1028,"x_min":0,"x_max":0,"o":"m 574 1217 b 493 1297 529 1217 493 1253 b 574 1379 493 1341 530 1379 b 656 1297 618 1379 656 1341 b 574 1217 656 1253 618 1217 m 620 -18 b 53 546 310 -18 53 237 b 617 1112 53 854 310 1112 b 997 945 759 1110 890 1050 l 897 810 b 614 938 821 887 721 938 b 227 545 416 938 227 764 b 614 155 227 325 418 155 b 898 285 726 155 823 210 l 997 146 b 620 -18 903 54 783 -18 "},"ċ":{"ha":1028,"x_min":0,"x_max":0,"o":"m 574 1217 b 656 1297 618 1217 656 1253 b 574 1379 656 1341 618 1379 b 493 1297 530 1379 493 1341 b 574 1217 493 1253 529 1217 m 620 -18 b 997 146 783 -18 903 54 l 898 285 b 614 155 823 210 726 155 b 227 545 418 155 227 325 b 614 938 227 764 416 938 b 897 810 721 938 821 887 l 997 945 b 617 1112 890 1050 759 1110 b 53 546 310 1112 53 854 b 620 -18 53 237 310 -18 "},"D":{"ha":1032,"x_min":0,"x_max":0,"o":"m 416 1093 b 980 545 764 1094 980 884 b 416 0 980 210 764 0 l 105 0 l 105 1093 l 416 1093 m 418 171 b 806 546 656 171 806 315 b 416 923 806 778 656 923 l 276 923 l 276 171 l 418 171 "},"d":{"ha":1032,"x_min":0,"x_max":0,"o":"m 416 1093 l 105 1093 l 105 0 l 416 0 b 980 545 764 0 980 210 b 416 1093 980 884 764 1094 m 418 171 l 276 171 l 276 923 l 416 923 b 806 546 656 923 806 778 b 418 171 806 315 656 171 "},"Ð":{"ha":1087,"x_min":0,"x_max":0,"o":"m 471 1093 b 1034 545 818 1094 1034 884 b 471 0 1034 210 818 0 l 160 0 l 160 485 l 32 485 l 32 600 l 160 600 l 160 1093 l 471 1093 m 473 171 b 861 546 711 171 861 315 b 471 923 861 778 711 923 l 331 923 l 331 599 l 542 599 l 542 485 l 331 485 l 331 171 l 473 171 "},"ð":{"ha":1087,"x_min":0,"x_max":0,"o":"m 471 1093 l 160 1093 l 160 600 l 32 600 l 32 485 l 160 485 l 160 0 l 471 0 b 1034 545 818 0 1034 210 b 471 1093 1034 884 818 1094 m 473 171 l 331 171 l 331 485 l 542 485 l 542 599 l 331 599 l 331 923 l 471 923 b 861 546 711 923 861 778 b 473 171 861 315 711 171 "},"Ď":{"ha":1032,"x_min":0,"x_max":0,"o":"m 471 1194 l 258 1392 l 397 1392 l 519 1275 l 643 1392 l 782 1392 l 567 1194 m 416 1093 b 980 545 764 1094 980 884 b 416 0 980 210 764 0 l 105 0 l 105 1093 l 416 1093 m 418 171 b 806 546 656 171 806 315 b 416 923 806 778 656 923 l 276 923 l 276 171 l 418 171 "},"ď":{"ha":1032,"x_min":0,"x_max":0,"o":"m 567 1194 l 782 1392 l 643 1392 l 519 1275 l 397 1392 l 258 1392 l 471 1194 m 416 1093 l 105 1093 l 105 0 l 416 0 b 980 545 764 0 980 210 b 416 1093 980 884 764 1094 m 418 171 l 276 171 l 276 923 l 416 923 b 806 546 656 923 806 778 b 418 171 806 315 656 171 "},"Đ":{"ha":1087,"x_min":0,"x_max":0,"o":"m 471 1093 b 1034 545 818 1094 1034 884 b 471 0 1034 210 818 0 l 160 0 l 160 485 l 32 485 l 32 600 l 160 600 l 160 1093 l 471 1093 m 473 171 b 861 546 711 171 861 315 b 471 923 861 778 711 923 l 331 923 l 331 599 l 542 599 l 542 485 l 331 485 l 331 171 l 473 171 "},"đ":{"ha":1087,"x_min":0,"x_max":0,"o":"m 471 1093 l 160 1093 l 160 600 l 32 600 l 32 485 l 160 485 l 160 0 l 471 0 b 1034 545 818 0 1034 210 b 471 1093 1034 884 818 1094 m 473 171 l 331 171 l 331 485 l 542 485 l 542 599 l 331 599 l 331 923 l 471 923 b 861 546 711 923 861 778 b 473 171 861 315 711 171 "},"E":{"ha":829,"x_min":0,"x_max":0,"o":"m 277 924 l 277 644 l 690 644 l 690 473 l 277 473 l 277 171 l 756 171 l 756 0 l 105 0 l 105 1093 l 756 1093 l 756 924 "},"e":{"ha":829,"x_min":0,"x_max":0,"o":"m 756 924 l 756 1093 l 105 1093 l 105 0 l 756 0 l 756 171 l 277 171 l 277 473 l 690 473 l 690 644 l 277 644 l 277 924 "},"É":{"ha":829,"x_min":0,"x_max":0,"o":"m 436 1183 l 312 1183 l 446 1405 l 597 1405 m 277 924 l 277 644 l 690 644 l 690 473 l 277 473 l 277 171 l 756 171 l 756 0 l 105 0 l 105 1093 l 756 1093 l 756 924 "},"é":{"ha":829,"x_min":0,"x_max":0,"o":"m 597 1405 l 446 1405 l 312 1183 l 436 1183 m 756 924 l 756 1093 l 105 1093 l 105 0 l 756 0 l 756 171 l 277 171 l 277 473 l 690 473 l 690 644 l 277 644 l 277 924 "},"Ĕ":{"ha":829,"x_min":0,"x_max":0,"o":"m 416 1195 b 222 1390 310 1195 222 1282 l 306 1390 b 416 1274 306 1326 355 1274 b 528 1390 478 1274 528 1326 l 611 1390 b 416 1195 611 1282 524 1195 m 277 924 l 277 644 l 690 644 l 690 473 l 277 473 l 277 171 l 756 171 l 756 0 l 105 0 l 105 1093 l 756 1093 l 756 924 "},"ĕ":{"ha":829,"x_min":0,"x_max":0,"o":"m 416 1195 b 611 1390 524 1195 611 1282 l 528 1390 b 416 1274 528 1326 478 1274 b 306 1390 355 1274 306 1326 l 222 1390 b 416 1195 222 1282 310 1195 m 756 924 l 756 1093 l 105 1093 l 105 0 l 756 0 l 756 171 l 277 171 l 277 473 l 690 473 l 690 644 l 277 644 l 277 924 "},"Ě":{"ha":829,"x_min":0,"x_max":0,"o":"m 368 1194 l 155 1392 l 294 1392 l 416 1275 l 540 1392 l 679 1392 l 464 1194 m 277 924 l 277 644 l 690 644 l 690 473 l 277 473 l 277 171 l 756 171 l 756 0 l 105 0 l 105 1093 l 756 1093 l 756 924 "},"ě":{"ha":829,"x_min":0,"x_max":0,"o":"m 464 1194 l 679 1392 l 540 1392 l 416 1275 l 294 1392 l 155 1392 l 368 1194 m 756 924 l 756 1093 l 105 1093 l 105 0 l 756 0 l 756 171 l 277 171 l 277 473 l 690 473 l 690 644 l 277 644 l 277 924 "},"Ê":{"ha":829,"x_min":0,"x_max":0,"o":"m 293 1194 l 155 1194 l 368 1392 l 464 1392 l 679 1194 l 539 1194 l 416 1310 m 277 924 l 277 644 l 690 644 l 690 473 l 277 473 l 277 171 l 756 171 l 756 0 l 105 0 l 105 1093 l 756 1093 l 756 924 "},"ê":{"ha":829,"x_min":0,"x_max":0,"o":"m 416 1310 l 539 1194 l 679 1194 l 464 1392 l 368 1392 l 155 1194 l 293 1194 m 756 924 l 756 1093 l 105 1093 l 105 0 l 756 0 l 756 171 l 277 171 l 277 473 l 690 473 l 690 644 l 277 644 l 277 924 "},"Ë":{"ha":829,"x_min":0,"x_max":0,"o":"m 265 1217 b 194 1287 227 1217 194 1249 b 265 1359 194 1326 227 1359 b 336 1287 304 1359 336 1326 b 265 1217 336 1249 304 1217 m 569 1217 b 498 1287 530 1217 498 1249 b 569 1359 498 1326 531 1359 b 641 1287 608 1359 641 1326 b 569 1217 641 1249 608 1217 m 277 924 l 277 644 l 690 644 l 690 473 l 277 473 l 277 171 l 756 171 l 756 0 l 105 0 l 105 1093 l 756 1093 l 756 924 "},"ë":{"ha":829,"x_min":0,"x_max":0,"o":"m 265 1217 b 336 1287 304 1217 336 1249 b 265 1359 336 1326 304 1359 b 194 1287 227 1359 194 1326 b 265 1217 194 1249 227 1217 m 569 1217 b 641 1287 608 1217 641 1249 b 569 1359 641 1326 608 1359 b 498 1287 531 1359 498 1326 b 569 1217 498 1249 530 1217 m 756 924 l 756 1093 l 105 1093 l 105 0 l 756 0 l 756 171 l 277 171 l 277 473 l 690 473 l 690 644 l 277 644 l 277 924 "},"Ė":{"ha":829,"x_min":0,"x_max":0,"o":"m 417 1217 b 336 1297 372 1217 336 1253 b 417 1379 336 1341 372 1379 b 498 1297 461 1379 498 1341 b 417 1217 498 1253 461 1217 m 277 924 l 277 644 l 690 644 l 690 473 l 277 473 l 277 171 l 756 171 l 756 0 l 105 0 l 105 1093 l 756 1093 l 756 924 "},"ė":{"ha":829,"x_min":0,"x_max":0,"o":"m 417 1217 b 498 1297 461 1217 498 1253 b 417 1379 498 1341 461 1379 b 336 1297 372 1379 336 1341 b 417 1217 336 1253 372 1217 m 756 924 l 756 1093 l 105 1093 l 105 0 l 756 0 l 756 171 l 277 171 l 277 473 l 690 473 l 690 644 l 277 644 l 277 924 "},"È":{"ha":829,"x_min":0,"x_max":0,"o":"m 435 1183 l 274 1405 l 425 1405 l 559 1183 m 277 924 l 277 644 l 690 644 l 690 473 l 277 473 l 277 171 l 756 171 l 756 0 l 105 0 l 105 1093 l 756 1093 l 756 924 "},"è":{"ha":829,"x_min":0,"x_max":0,"o":"m 559 1183 l 425 1405 l 274 1405 l 435 1183 m 756 924 l 756 1093 l 105 1093 l 105 0 l 756 0 l 756 171 l 277 171 l 277 473 l 690 473 l 690 644 l 277 644 l 277 924 "},"Ē":{"ha":829,"x_min":0,"x_max":0,"o":"m 611 1230 l 223 1230 l 223 1319 l 611 1319 m 277 924 l 277 644 l 690 644 l 690 473 l 277 473 l 277 171 l 756 171 l 756 0 l 105 0 l 105 1093 l 756 1093 l 756 924 "},"ē":{"ha":829,"x_min":0,"x_max":0,"o":"m 611 1319 l 223 1319 l 223 1230 l 611 1230 m 756 924 l 756 1093 l 105 1093 l 105 0 l 756 0 l 756 171 l 277 171 l 277 473 l 690 473 l 690 644 l 277 644 l 277 924 "},"Ę":{"ha":829,"x_min":0,"x_max":0,"o":"m 772 -345 b 667 -358 733 -354 697 -358 b 486 -211 553 -358 486 -302 b 645 0 486 -116 559 -39 l 105 0 l 105 1093 l 756 1093 l 756 924 l 277 924 l 277 644 l 690 644 l 690 473 l 277 473 l 277 171 l 756 171 l 756 1 l 764 -1 b 609 -172 669 -63 609 -113 b 678 -237 609 -191 617 -237 b 750 -227 692 -237 720 -234 "},"ę":{"ha":829,"x_min":0,"x_max":0,"o":"m 750 -227 b 678 -237 720 -234 692 -237 b 609 -172 617 -237 609 -191 b 764 -1 609 -113 669 -63 l 756 1 l 756 171 l 277 171 l 277 473 l 690 473 l 690 644 l 277 644 l 277 924 l 756 924 l 756 1093 l 105 1093 l 105 0 l 645 0 b 486 -211 559 -39 486 -116 b 667 -358 486 -302 553 -358 b 772 -345 697 -358 733 -354 "},"F":{"ha":787,"x_min":0,"x_max":0,"o":"m 277 925 l 277 633 l 690 633 l 690 462 l 277 462 l 277 -1 l 105 -1 l 105 1096 l 756 1096 l 756 925 "},"f":{"ha":787,"x_min":0,"x_max":0,"o":"m 756 925 l 756 1096 l 105 1096 l 105 -1 l 277 -1 l 277 462 l 690 462 l 690 633 l 277 633 l 277 925 "},"G":{"ha":1196,"x_min":0,"x_max":0,"o":"m 1139 597 b 1143 511 1141 572 1143 542 b 623 -18 1143 186 907 -18 b 53 545 305 -18 53 235 b 617 1112 53 856 307 1112 b 1015 944 755 1111 912 1044 l 920 802 b 615 939 834 886 719 939 b 227 545 416 939 227 772 b 631 155 227 331 397 155 b 960 436 819 155 960 269 l 960 439 l 621 439 l 621 597 l 1139 597 "},"g":{"ha":1196,"x_min":0,"x_max":0,"o":"m 1139 597 l 621 597 l 621 439 l 960 439 l 960 436 b 631 155 960 269 819 155 b 227 545 397 155 227 331 b 615 939 227 772 416 939 b 920 802 719 939 834 886 l 1015 944 b 617 1112 912 1044 755 1111 b 53 545 307 1112 53 856 b 623 -18 53 235 305 -18 b 1143 511 907 -18 1143 186 b 1139 597 1143 542 1141 572 "},"Ğ":{"ha":1196,"x_min":0,"x_max":0,"o":"m 612 1195 b 418 1390 505 1195 418 1282 l 501 1390 b 612 1274 501 1326 551 1274 b 724 1390 673 1274 724 1326 l 806 1390 b 612 1195 806 1282 719 1195 m 1139 597 b 1143 511 1141 572 1143 542 b 623 -18 1143 186 907 -18 b 53 545 305 -18 53 235 b 617 1112 53 856 307 1112 b 1015 944 755 1111 912 1044 l 920 802 b 615 939 834 886 719 939 b 227 545 416 939 227 772 b 631 155 227 331 397 155 b 960 436 819 155 960 269 l 960 439 l 621 439 l 621 597 l 1139 597 "},"ğ":{"ha":1196,"x_min":0,"x_max":0,"o":"m 612 1195 b 806 1390 719 1195 806 1282 l 724 1390 b 612 1274 724 1326 673 1274 b 501 1390 551 1274 501 1326 l 418 1390 b 612 1195 418 1282 505 1195 m 1139 597 l 621 597 l 621 439 l 960 439 l 960 436 b 631 155 960 269 819 155 b 227 545 397 155 227 331 b 615 939 227 772 416 939 b 920 802 719 939 834 886 l 1015 944 b 617 1112 912 1044 755 1111 b 53 545 307 1112 53 856 b 623 -18 53 235 305 -18 b 1143 511 907 -18 1143 186 b 1139 597 1143 542 1141 572 "},"Ģ":{"ha":1196,"x_min":0,"x_max":0,"o":"m 1139 597 b 1143 511 1141 572 1143 542 b 623 -18 1143 186 907 -18 b 53 545 305 -18 53 235 b 617 1112 53 856 307 1112 b 1015 944 755 1111 912 1044 l 920 802 b 615 939 834 886 719 939 b 227 545 416 939 227 772 b 631 155 227 331 397 155 b 960 436 819 155 960 269 l 960 439 l 621 439 l 621 597 l 1139 597 m 618 -79 b 706 -188 663 -79 706 -113 b 564 -368 706 -288 641 -368 b 522 -348 537 -368 522 -355 b 616 -252 553 -348 616 -321 b 607 -218 616 -236 614 -227 b 535 -153 574 -218 535 -194 b 618 -79 535 -113 570 -79 "},"ģ":{"ha":1196,"x_min":0,"x_max":0,"o":"m 1139 597 l 621 597 l 621 439 l 960 439 l 960 436 b 631 155 960 269 819 155 b 227 545 397 155 227 331 b 615 939 227 772 416 939 b 920 802 719 939 834 886 l 1015 944 b 617 1112 912 1044 755 1111 b 53 545 307 1112 53 856 b 623 -18 53 235 305 -18 b 1143 511 907 -18 1143 186 b 1139 597 1143 542 1141 572 m 618 -79 b 535 -153 570 -79 535 -113 b 607 -218 535 -194 574 -218 b 616 -252 614 -227 616 -236 b 522 -348 616 -321 553 -348 b 564 -368 522 -355 537 -368 b 706 -188 641 -368 706 -288 b 618 -79 706 -113 663 -79 "},"Ġ":{"ha":1196,"x_min":0,"x_max":0,"o":"m 612 1217 b 531 1297 567 1217 531 1253 b 612 1379 531 1341 568 1379 b 694 1297 656 1379 694 1341 b 612 1217 694 1253 656 1217 m 1139 597 b 1143 511 1141 572 1143 542 b 623 -18 1143 186 907 -18 b 53 545 305 -18 53 235 b 617 1112 53 856 307 1112 b 1015 944 755 1111 912 1044 l 920 802 b 615 939 834 886 719 939 b 227 545 416 939 227 772 b 631 155 227 331 397 155 b 960 436 819 155 960 269 l 960 439 l 621 439 l 621 597 l 1139 597 "},"ġ":{"ha":1196,"x_min":0,"x_max":0,"o":"m 612 1217 b 694 1297 656 1217 694 1253 b 612 1379 694 1341 656 1379 b 531 1297 568 1379 531 1341 b 612 1217 531 1253 567 1217 m 1139 597 l 621 597 l 621 439 l 960 439 l 960 436 b 631 155 960 269 819 155 b 227 545 397 155 227 331 b 615 939 227 772 416 939 b 920 802 719 939 834 886 l 1015 944 b 617 1112 912 1044 755 1111 b 53 545 307 1112 53 856 b 623 -18 53 235 305 -18 b 1143 511 907 -18 1143 186 b 1139 597 1143 542 1141 572 "},"H":{"ha":1026,"x_min":0,"x_max":0,"o":"m 921 1093 l 921 0 l 749 0 l 749 462 l 276 462 l 276 0 l 105 0 l 105 1093 l 276 1093 l 276 632 l 749 632 l 749 1093 "},"h":{"ha":1026,"x_min":0,"x_max":0,"o":"m 749 1093 l 749 632 l 276 632 l 276 1093 l 105 1093 l 105 0 l 276 0 l 276 462 l 749 462 l 749 0 l 921 0 l 921 1093 "},"Ħ":{"ha":1026,"x_min":0,"x_max":0,"o":"m 1015 772 l 921 772 l 921 0 l 749 0 l 749 462 l 276 462 l 276 0 l 105 0 l 105 772 l 20 772 l 20 897 l 105 897 l 105 1093 l 276 1093 l 276 897 l 749 897 l 749 1093 l 921 1093 l 921 897 l 1015 897 m 749 772 l 276 772 l 276 632 l 749 632 "},"ħ":{"ha":1026,"x_min":0,"x_max":0,"o":"m 1015 897 l 921 897 l 921 1093 l 749 1093 l 749 897 l 276 897 l 276 1093 l 105 1093 l 105 897 l 20 897 l 20 772 l 105 772 l 105 0 l 276 0 l 276 462 l 749 462 l 749 0 l 921 0 l 921 772 l 1015 772 m 749 632 l 276 632 l 276 772 l 749 772 "},"I":{"ha":382,"x_min":0,"x_max":0,"o":"m 105 1093 l 277 1093 l 277 0 l 105 0 "},"Í":{"ha":382,"x_min":0,"x_max":0,"o":"m 86 1183 l 220 1405 l 372 1405 l 210 1183 m 105 1093 l 277 1093 l 277 0 l 105 0 "},"í":{"ha":382,"x_min":0,"x_max":0,"o":"m 210 1183 l 372 1405 l 220 1405 l 86 1183 m 105 0 l 277 0 l 277 1093 l 105 1093 "},"Î":{"ha":382,"x_min":0,"x_max":0,"o":"m 142 1392 l 238 1392 l 453 1194 l 313 1194 l 190 1310 l 67 1194 l -71 1194 m 105 1093 l 277 1093 l 277 0 l 105 0 "},"î":{"ha":382,"x_min":0,"x_max":0,"o":"m -71 1194 l 67 1194 l 190 1310 l 313 1194 l 453 1194 l 238 1392 l 142 1392 m 105 0 l 277 0 l 277 1093 l 105 1093 "},"Ï":{"ha":382,"x_min":0,"x_max":0,"o":"m 39 1217 b -33 1287 -1 1217 -33 1249 b 39 1359 -33 1326 -1 1359 b 110 1287 77 1359 110 1326 b 39 1217 110 1249 77 1217 m 342 1217 b 272 1287 304 1217 272 1249 b 342 1359 272 1326 304 1359 b 414 1287 382 1359 414 1326 b 342 1217 414 1249 382 1217 m 105 1093 l 277 1093 l 277 0 l 105 0 "},"ï":{"ha":382,"x_min":0,"x_max":0,"o":"m 39 1217 b 110 1287 77 1217 110 1249 b 39 1359 110 1326 77 1359 b -33 1287 -1 1359 -33 1326 b 39 1217 -33 1249 -1 1217 m 342 1217 b 414 1287 382 1217 414 1249 b 342 1359 414 1326 382 1359 b 272 1287 304 1359 272 1326 b 342 1217 272 1249 304 1217 m 105 0 l 277 0 l 277 1093 l 105 1093 "},"İ":{"ha":382,"x_min":0,"x_max":0,"o":"m 191 1217 b 110 1297 146 1217 110 1253 b 191 1379 110 1341 146 1379 b 273 1297 235 1379 273 1341 b 191 1217 273 1253 235 1217 m 105 1093 l 277 1093 l 277 0 l 105 0 "},"Ì":{"ha":382,"x_min":0,"x_max":0,"o":"m 48 1405 l 199 1405 l 334 1183 l 210 1183 m 105 1093 l 277 1093 l 277 0 l 105 0 "},"ì":{"ha":382,"x_min":0,"x_max":0,"o":"m 210 1183 l 334 1183 l 199 1405 l 48 1405 m 105 0 l 277 0 l 277 1093 l 105 1093 "},"Ī":{"ha":382,"x_min":0,"x_max":0,"o":"m -3 1319 l 385 1319 l 385 1230 l -3 1230 m 105 1093 l 277 1093 l 277 0 l 105 0 "},"ī":{"ha":382,"x_min":0,"x_max":0,"o":"m -3 1230 l 385 1230 l 385 1319 l -3 1319 m 105 0 l 277 0 l 277 1093 l 105 1093 "},"Į":{"ha":382,"x_min":0,"x_max":0,"o":"m 297 -342 b 192 -355 258 -351 222 -355 b 11 -208 78 -355 11 -300 b 164 0 11 -115 81 -40 l 105 0 l 105 1093 l 277 1093 l 277 5 l 290 2 b 134 -169 195 -60 134 -110 b 203 -234 134 -189 142 -234 b 275 -224 217 -234 245 -231 "},"į":{"ha":382,"x_min":0,"x_max":0,"o":"m 275 -224 b 203 -234 245 -231 217 -234 b 134 -169 142 -234 134 -189 b 290 2 134 -110 195 -60 l 277 5 l 277 1093 l 105 1093 l 105 0 l 164 0 b 11 -208 81 -40 11 -115 b 192 -355 11 -300 78 -355 b 297 -342 222 -355 258 -351 "},"J":{"ha":815,"x_min":0,"x_max":0,"o":"m 277 -21 b 32 54 189 -21 100 7 l 119 205 b 279 150 159 171 217 150 l 283 150 b 549 418 430 150 549 273 l 546 1093 l 718 1093 l 721 417 b 285 -21 721 172 526 -21 l 277 -21 "},"j":{"ha":815,"x_min":0,"x_max":0,"o":"m 277 -21 l 285 -21 b 721 417 526 -21 721 172 l 718 1093 l 546 1093 l 549 418 b 283 150 549 273 430 150 l 279 150 b 119 205 217 150 159 171 l 32 54 b 277 -21 100 7 189 -21 "},"K":{"ha":901,"x_min":0,"x_max":0,"o":"m 680 0 l 276 529 l 276 0 l 105 0 l 105 1093 l 276 1093 l 276 570 l 652 1093 l 851 1093 l 463 557 l 890 0 "},"k":{"ha":901,"x_min":0,"x_max":0,"o":"m 890 0 l 463 557 l 851 1093 l 652 1093 l 276 570 l 276 1093 l 105 1093 l 105 0 l 276 0 l 276 529 l 680 0 "},"Ķ":{"ha":901,"x_min":0,"x_max":0,"o":"m 890 0 l 680 0 l 276 529 l 276 0 l 105 0 l 105 1093 l 276 1093 l 276 570 l 652 1093 l 851 1093 l 463 557 m 476 -79 b 564 -188 521 -79 564 -113 b 421 -368 564 -288 498 -368 b 379 -348 395 -368 379 -355 b 474 -252 411 -348 474 -321 b 465 -218 474 -236 472 -227 b 393 -153 432 -218 393 -194 b 476 -79 393 -113 428 -79 "},"ķ":{"ha":901,"x_min":0,"x_max":0,"o":"m 463 557 l 851 1093 l 652 1093 l 276 570 l 276 1093 l 105 1093 l 105 0 l 276 0 l 276 529 l 680 0 l 890 0 m 476 -79 b 393 -153 428 -79 393 -113 b 465 -218 393 -194 432 -218 b 474 -252 472 -227 474 -236 b 379 -348 474 -321 411 -348 b 421 -368 379 -355 395 -368 b 564 -188 498 -368 564 -288 b 476 -79 564 -113 521 -79 "},"L":{"ha":796,"x_min":0,"x_max":0,"o":"m 764 171 l 764 0 l 105 0 l 105 1093 l 277 1093 l 277 171 "},"l":{"ha":796,"x_min":0,"x_max":0,"o":"m 277 171 l 277 1093 l 105 1093 l 105 0 l 764 0 l 764 171 "},"Ĺ":{"ha":796,"x_min":0,"x_max":0,"o":"m 433 1183 l 309 1183 l 443 1405 l 594 1405 m 764 171 l 764 0 l 105 0 l 105 1093 l 277 1093 l 277 171 "},"ĺ":{"ha":796,"x_min":0,"x_max":0,"o":"m 594 1405 l 443 1405 l 309 1183 l 433 1183 m 277 171 l 277 1093 l 105 1093 l 105 0 l 764 0 l 764 171 "},"Ľ":{"ha":796,"x_min":0,"x_max":0,"o":"m 484 831 l 375 831 l 429 1143 l 564 1143 m 764 171 l 764 0 l 105 0 l 105 1093 l 277 1093 l 277 171 "},"ľ":{"ha":796,"x_min":0,"x_max":0,"o":"m 564 1143 l 429 1143 l 375 831 l 484 831 m 277 171 l 277 1093 l 105 1093 l 105 0 l 764 0 l 764 171 "},"Ļ":{"ha":796,"x_min":0,"x_max":0,"o":"m 764 171 l 764 0 l 105 0 l 105 1093 l 277 1093 l 277 171 m 420 -79 b 507 -188 465 -79 507 -113 b 365 -368 507 -288 442 -368 b 323 -348 338 -368 323 -355 b 418 -252 355 -348 418 -321 b 408 -218 418 -236 416 -227 b 336 -153 376 -218 336 -194 b 420 -79 336 -113 372 -79 "},"ļ":{"ha":796,"x_min":0,"x_max":0,"o":"m 277 171 l 277 1093 l 105 1093 l 105 0 l 764 0 l 764 171 m 420 -79 b 336 -153 372 -79 336 -113 b 408 -218 336 -194 376 -218 b 418 -252 416 -227 418 -236 b 323 -348 418 -321 355 -348 b 365 -368 323 -355 338 -368 b 507 -188 442 -368 507 -288 b 420 -79 507 -113 465 -79 "},"Ł":{"ha":796,"x_min":0,"x_max":0,"o":"m 764 171 l 764 0 l 105 0 l 105 399 l -39 296 l -39 433 l 105 536 l 105 1093 l 277 1093 l 277 660 l 426 766 l 426 629 l 277 522 l 277 171 "},"ł":{"ha":796,"x_min":0,"x_max":0,"o":"m 277 171 l 277 522 l 426 629 l 426 766 l 277 660 l 277 1093 l 105 1093 l 105 536 l -39 433 l -39 296 l 105 399 l 105 0 l 764 0 l 764 171 "},"M":{"ha":1281,"x_min":0,"x_max":0,"o":"m 1176 1117 l 1176 0 l 1004 0 l 1004 606 l 642 18 l 640 18 l 277 607 l 277 0 l 105 0 l 105 1117 l 118 1117 l 641 322 l 1163 1117 "},"m":{"ha":1281,"x_min":0,"x_max":0,"o":"m 1163 1117 l 641 322 l 118 1117 l 105 1117 l 105 0 l 277 0 l 277 607 l 640 18 l 642 18 l 1004 606 l 1004 0 l 1176 0 l 1176 1117 "},"N":{"ha":1089,"x_min":0,"x_max":0,"o":"m 984 1096 l 984 -19 l 976 -19 l 277 711 l 277 -1 l 105 -1 l 105 1112 l 114 1112 l 812 383 l 812 1096 "},"n":{"ha":1089,"x_min":0,"x_max":0,"o":"m 812 1096 l 812 383 l 114 1112 l 105 1112 l 105 -1 l 277 -1 l 277 711 l 976 -19 l 984 -19 l 984 1096 "},"Ń":{"ha":1089,"x_min":0,"x_max":0,"o":"m 564 1183 l 439 1183 l 574 1405 l 725 1405 m 984 1096 l 984 -19 l 976 -19 l 277 711 l 277 -1 l 105 -1 l 105 1112 l 114 1112 l 812 383 l 812 1096 "},"ń":{"ha":1089,"x_min":0,"x_max":0,"o":"m 725 1405 l 574 1405 l 439 1183 l 564 1183 m 812 1096 l 812 383 l 114 1112 l 105 1112 l 105 -1 l 277 -1 l 277 711 l 976 -19 l 984 -19 l 984 1096 "},"Ň":{"ha":1089,"x_min":0,"x_max":0,"o":"m 496 1194 l 283 1392 l 421 1392 l 544 1275 l 667 1392 l 806 1392 l 591 1194 m 984 1096 l 984 -19 l 976 -19 l 277 711 l 277 -1 l 105 -1 l 105 1112 l 114 1112 l 812 383 l 812 1096 "},"ň":{"ha":1089,"x_min":0,"x_max":0,"o":"m 591 1194 l 806 1392 l 667 1392 l 544 1275 l 421 1392 l 283 1392 l 496 1194 m 812 1096 l 812 383 l 114 1112 l 105 1112 l 105 -1 l 277 -1 l 277 711 l 976 -19 l 984 -19 l 984 1096 "},"Ņ":{"ha":1089,"x_min":0,"x_max":0,"o":"m 984 1096 l 984 -19 l 976 -19 l 277 711 l 277 -1 l 105 -1 l 105 1112 l 114 1112 l 812 383 l 812 1096 m 551 -79 b 638 -188 595 -79 638 -113 b 496 -368 638 -288 573 -368 b 454 -348 469 -368 454 -355 b 549 -252 486 -348 549 -321 b 539 -218 549 -236 547 -227 b 467 -153 507 -218 467 -194 b 551 -79 467 -113 503 -79 "},"ņ":{"ha":1089,"x_min":0,"x_max":0,"o":"m 812 1096 l 812 383 l 114 1112 l 105 1112 l 105 -1 l 277 -1 l 277 711 l 976 -19 l 984 -19 l 984 1096 m 551 -79 b 467 -153 503 -79 467 -113 b 539 -218 467 -194 507 -218 b 549 -252 547 -227 549 -236 b 454 -348 549 -321 486 -348 b 496 -368 454 -355 469 -368 b 638 -188 573 -368 638 -288 b 551 -79 638 -113 595 -79 "},"Ŋ":{"ha":1089,"x_min":0,"x_max":0,"o":"m 984 1096 l 984 -20 b 804 -344 984 -159 920 -273 l 692 -255 b 821 -24 774 -212 821 -147 l 821 143 l 277 711 l 277 -1 l 105 -1 l 105 1112 l 114 1112 l 812 383 l 812 1096 "},"ŋ":{"ha":1089,"x_min":0,"x_max":0,"o":"m 812 1096 l 812 383 l 114 1112 l 105 1112 l 105 -1 l 277 -1 l 277 711 l 821 143 l 821 -24 b 692 -255 821 -147 774 -212 l 804 -344 b 984 -20 920 -273 984 -159 l 984 1096 "},"Ñ":{"ha":1089,"x_min":0,"x_max":0,"o":"m 442 1292 b 363 1204 399 1292 376 1257 l 278 1237 b 442 1383 305 1362 391 1383 b 648 1291 545 1383 576 1291 b 727 1379 690 1291 713 1326 l 811 1347 b 647 1200 784 1221 699 1200 b 442 1292 545 1200 513 1292 m 984 1096 l 984 -19 l 976 -19 l 277 711 l 277 -1 l 105 -1 l 105 1112 l 114 1112 l 812 383 l 812 1096 "},"ñ":{"ha":1089,"x_min":0,"x_max":0,"o":"m 442 1292 b 647 1200 513 1292 545 1200 b 811 1347 699 1200 784 1221 l 727 1379 b 648 1291 713 1326 690 1291 b 442 1383 576 1291 545 1383 b 278 1237 391 1383 305 1362 l 363 1204 b 442 1292 376 1257 399 1292 m 812 1096 l 812 383 l 114 1112 l 105 1112 l 105 -1 l 277 -1 l 277 711 l 976 -19 l 984 -19 l 984 1096 "},"O":{"ha":1236,"x_min":0,"x_max":0,"o":"m 617 -18 b 53 545 307 -18 53 236 b 618 1112 53 857 307 1112 b 1183 545 928 1112 1183 857 b 617 -18 1183 236 928 -18 m 617 156 b 1010 547 833 156 1010 332 b 617 939 1010 763 833 939 b 226 547 401 939 226 763 b 617 156 226 332 401 156 "},"o":{"ha":1236,"x_min":0,"x_max":0,"o":"m 617 -18 b 1183 545 928 -18 1183 236 b 618 1112 1183 857 928 1112 b 53 545 307 1112 53 857 b 617 -18 53 236 307 -18 m 617 156 b 226 547 401 156 226 332 b 617 939 226 763 401 939 b 1010 547 833 939 1010 763 b 617 156 1010 332 833 156 "},"Ó":{"ha":1236,"x_min":0,"x_max":0,"o":"m 513 1183 l 647 1405 l 798 1405 l 637 1183 m 617 -18 b 53 545 307 -18 53 236 b 618 1112 53 857 307 1112 b 1183 545 928 1112 1183 857 b 617 -18 1183 236 928 -18 m 617 156 b 1010 547 833 156 1010 332 b 617 939 1010 763 833 939 b 226 547 401 939 226 763 b 617 156 226 332 401 156 "},"ó":{"ha":1236,"x_min":0,"x_max":0,"o":"m 637 1183 l 798 1405 l 647 1405 l 513 1183 m 617 -18 b 1183 545 928 -18 1183 236 b 618 1112 1183 857 928 1112 b 53 545 307 1112 53 857 b 617 -18 53 236 307 -18 m 617 156 b 226 547 401 156 226 332 b 617 939 226 763 401 939 b 1010 547 833 939 1010 763 b 617 156 1010 332 833 156 "},"Ô":{"ha":1236,"x_min":0,"x_max":0,"o":"m 568 1392 l 665 1392 l 880 1194 l 740 1194 l 616 1310 l 494 1194 l 355 1194 m 617 -18 b 53 545 307 -18 53 236 b 618 1112 53 857 307 1112 b 1183 545 928 1112 1183 857 b 617 -18 1183 236 928 -18 m 617 156 b 1010 547 833 156 1010 332 b 617 939 1010 763 833 939 b 226 547 401 939 226 763 b 617 156 226 332 401 156 "},"ô":{"ha":1236,"x_min":0,"x_max":0,"o":"m 355 1194 l 494 1194 l 616 1310 l 740 1194 l 880 1194 l 665 1392 l 568 1392 m 617 -18 b 1183 545 928 -18 1183 236 b 618 1112 1183 857 928 1112 b 53 545 307 1112 53 857 b 617 -18 53 236 307 -18 m 617 156 b 226 547 401 156 226 332 b 617 939 226 763 401 939 b 1010 547 833 939 1010 763 b 617 156 1010 332 833 156 "},"Ö":{"ha":1236,"x_min":0,"x_max":0,"o":"m 466 1217 b 395 1287 427 1217 395 1249 b 466 1359 395 1326 427 1359 b 537 1287 505 1359 537 1326 b 466 1217 537 1249 505 1217 m 770 1217 b 699 1287 731 1217 699 1249 b 770 1359 699 1326 732 1359 b 842 1287 809 1359 842 1326 b 770 1217 842 1249 809 1217 m 617 -18 b 53 545 307 -18 53 236 b 618 1112 53 857 307 1112 b 1183 545 928 1112 1183 857 b 617 -18 1183 236 928 -18 m 617 156 b 1010 547 833 156 1010 332 b 617 939 1010 763 833 939 b 226 547 401 939 226 763 b 617 156 226 332 401 156 "},"ö":{"ha":1236,"x_min":0,"x_max":0,"o":"m 466 1217 b 537 1287 505 1217 537 1249 b 466 1359 537 1326 505 1359 b 395 1287 427 1359 395 1326 b 466 1217 395 1249 427 1217 m 770 1217 b 842 1287 809 1217 842 1249 b 770 1359 842 1326 809 1359 b 699 1287 732 1359 699 1326 b 770 1217 699 1249 731 1217 m 617 -18 b 1183 545 928 -18 1183 236 b 618 1112 1183 857 928 1112 b 53 545 307 1112 53 857 b 617 -18 53 236 307 -18 m 617 156 b 226 547 401 156 226 332 b 617 939 226 763 401 939 b 1010 547 833 939 1010 763 b 617 156 1010 332 833 156 "},"Ò":{"ha":1236,"x_min":0,"x_max":0,"o":"m 475 1405 l 626 1405 l 760 1183 l 636 1183 m 617 -18 b 53 545 307 -18 53 236 b 618 1112 53 857 307 1112 b 1183 545 928 1112 1183 857 b 617 -18 1183 236 928 -18 m 617 156 b 1010 547 833 156 1010 332 b 617 939 1010 763 833 939 b 226 547 401 939 226 763 b 617 156 226 332 401 156 "},"ò":{"ha":1236,"x_min":0,"x_max":0,"o":"m 636 1183 l 760 1183 l 626 1405 l 475 1405 m 617 -18 b 1183 545 928 -18 1183 236 b 618 1112 1183 857 928 1112 b 53 545 307 1112 53 857 b 617 -18 53 236 307 -18 m 617 156 b 226 547 401 156 226 332 b 617 939 226 763 401 939 b 1010 547 833 939 1010 763 b 617 156 1010 332 833 156 "},"Ő":{"ha":1236,"x_min":0,"x_max":0,"o":"m 519 1404 l 654 1404 l 523 1182 l 414 1182 m 770 1404 l 916 1404 l 742 1182 l 628 1182 m 617 -18 b 53 545 307 -18 53 236 b 618 1112 53 857 307 1112 b 1183 545 928 1112 1183 857 b 617 -18 1183 236 928 -18 m 617 156 b 1010 547 833 156 1010 332 b 617 939 1010 763 833 939 b 226 547 401 939 226 763 b 617 156 226 332 401 156 "},"ő":{"ha":1236,"x_min":0,"x_max":0,"o":"m 414 1182 l 523 1182 l 654 1404 l 519 1404 m 628 1182 l 742 1182 l 916 1404 l 770 1404 m 617 -18 b 1183 545 928 -18 1183 236 b 618 1112 1183 857 928 1112 b 53 545 307 1112 53 857 b 617 -18 53 236 307 -18 m 617 156 b 226 547 401 156 226 332 b 617 939 226 763 401 939 b 1010 547 833 939 1010 763 b 617 156 1010 332 833 156 "},"Ō":{"ha":1236,"x_min":0,"x_max":0,"o":"m 424 1319 l 812 1319 l 812 1230 l 424 1230 m 617 -18 b 53 545 307 -18 53 236 b 618 1112 53 857 307 1112 b 1183 545 928 1112 1183 857 b 617 -18 1183 236 928 -18 m 617 156 b 1010 547 833 156 1010 332 b 617 939 1010 763 833 939 b 226 547 401 939 226 763 b 617 156 226 332 401 156 "},"ō":{"ha":1236,"x_min":0,"x_max":0,"o":"m 424 1230 l 812 1230 l 812 1319 l 424 1319 m 617 -18 b 1183 545 928 -18 1183 236 b 618 1112 1183 857 928 1112 b 53 545 307 1112 53 857 b 617 -18 53 236 307 -18 m 617 156 b 226 547 401 156 226 332 b 617 939 226 763 401 939 b 1010 547 833 939 1010 763 b 617 156 1010 332 833 156 "},"Ø":{"ha":1236,"x_min":0,"x_max":0,"o":"m 993 969 b 1183 545 1109 865 1183 713 b 617 -18 1183 236 928 -18 b 355 47 523 -18 433 6 l 283 -56 l 138 -56 l 256 114 b 53 545 132 218 53 373 b 618 1112 53 857 307 1112 b 896 1038 718 1112 813 1085 l 951 1118 l 1096 1118 l 993 969 m 226 547 b 355 257 226 432 275 329 l 797 896 b 617 939 743 924 682 939 b 226 547 401 939 226 763 m 617 156 b 1010 547 833 156 1010 332 b 893 825 1010 655 965 754 l 455 191 b 617 156 505 169 559 156 "},"ø":{"ha":1236,"x_min":0,"x_max":0,"o":"m 993 969 l 1096 1118 l 951 1118 l 896 1038 b 618 1112 813 1085 718 1112 b 53 545 307 1112 53 857 b 256 114 53 373 132 218 l 138 -56 l 283 -56 l 355 47 b 617 -18 433 6 523 -18 b 1183 545 928 -18 1183 236 b 993 969 1183 713 1109 865 m 226 547 b 617 939 226 763 401 939 b 797 896 682 939 743 924 l 355 257 b 226 547 275 329 226 432 m 617 156 b 455 191 559 156 505 169 l 893 825 b 1010 547 965 754 1010 655 b 617 156 1010 332 833 156 "},"Õ":{"ha":1236,"x_min":0,"x_max":0,"o":"m 351 1237 b 515 1383 378 1362 464 1383 b 721 1291 618 1383 650 1291 b 800 1379 763 1291 787 1326 l 884 1347 b 720 1200 857 1221 772 1200 b 515 1292 618 1200 587 1292 b 436 1204 473 1292 449 1257 m 617 -18 b 53 545 307 -18 53 236 b 618 1112 53 857 307 1112 b 1183 545 928 1112 1183 857 b 617 -18 1183 236 928 -18 m 617 156 b 1010 547 833 156 1010 332 b 617 939 1010 763 833 939 b 226 547 401 939 226 763 b 617 156 226 332 401 156 "},"õ":{"ha":1236,"x_min":0,"x_max":0,"o":"m 436 1204 b 515 1292 449 1257 473 1292 b 720 1200 587 1292 618 1200 b 884 1347 772 1200 857 1221 l 800 1379 b 721 1291 787 1326 763 1291 b 515 1383 650 1291 618 1383 b 351 1237 464 1383 378 1362 m 617 -18 b 1183 545 928 -18 1183 236 b 618 1112 1183 857 928 1112 b 53 545 307 1112 53 857 b 617 -18 53 236 307 -18 m 617 156 b 226 547 401 156 226 332 b 617 939 226 763 401 939 b 1010 547 833 939 1010 763 b 617 156 1010 332 833 156 "},"Œ":{"ha":1713,"x_min":0,"x_max":0,"o":"m 1160 924 l 1160 644 l 1574 644 l 1574 473 l 1160 473 l 1160 171 l 1640 171 l 1640 0 l 989 0 l 989 155 b 597 -18 895 48 758 -18 b 53 545 303 -18 53 236 b 598 1112 53 857 303 1112 b 989 940 758 1112 895 1048 l 989 1093 l 1640 1093 l 1640 924 m 608 156 b 989 547 812 156 989 321 b 608 939 989 778 812 939 b 226 547 398 939 226 763 b 608 156 226 332 398 156 "},"œ":{"ha":1713,"x_min":0,"x_max":0,"o":"m 1640 924 l 1640 1093 l 989 1093 l 989 940 b 598 1112 895 1048 758 1112 b 53 545 303 1112 53 857 b 597 -18 53 236 303 -18 b 989 155 758 -18 895 48 l 989 0 l 1640 0 l 1640 171 l 1160 171 l 1160 473 l 1574 473 l 1574 644 l 1160 644 l 1160 924 m 608 156 b 226 547 398 156 226 332 b 608 939 226 763 398 939 b 989 547 812 939 989 778 b 608 156 989 321 812 156 "},"P":{"ha":886,"x_min":0,"x_max":0,"o":"m 105 1093 l 471 1093 b 855 732 682 1093 855 931 b 471 379 855 538 682 379 l 277 379 l 277 0 l 105 0 m 471 549 b 684 734 588 548 684 631 b 471 923 684 838 588 923 l 277 923 l 277 549 l 471 549 "},"p":{"ha":886,"x_min":0,"x_max":0,"o":"m 105 0 l 277 0 l 277 379 l 471 379 b 855 732 682 379 855 538 b 471 1093 855 931 682 1093 l 105 1093 m 471 549 l 277 549 l 277 923 l 471 923 b 684 734 588 923 684 838 b 471 549 684 631 588 548 "},"Þ":{"ha":880,"x_min":0,"x_max":0,"o":"m 105 1093 l 276 1093 l 276 899 l 468 899 b 827 553 668 899 827 745 b 468 208 827 361 668 208 l 276 208 l 276 0 l 105 0 m 468 366 b 669 553 578 366 669 450 b 468 741 669 656 578 741 l 276 741 l 276 366 "},"þ":{"ha":880,"x_min":0,"x_max":0,"o":"m 105 0 l 276 0 l 276 208 l 468 208 b 827 553 668 208 827 361 b 468 899 827 745 668 899 l 276 899 l 276 1093 l 105 1093 m 276 366 l 276 741 l 468 741 b 669 553 578 741 669 656 b 468 366 669 450 578 366 "},"Q":{"ha":1236,"x_min":0,"x_max":0,"o":"m 1183 545 b 1017 148 1183 391 1120 250 b 1173 116 1061 130 1112 119 l 1155 -52 b 876 45 1035 -46 947 -7 b 617 -18 798 5 710 -18 b 53 545 307 -18 53 236 b 618 1112 53 857 307 1112 b 1183 545 928 1112 1183 857 m 226 547 b 617 156 226 332 401 156 b 740 176 660 156 701 163 b 456 376 652 275 579 370 l 467 524 b 870 248 679 513 752 363 b 1010 547 956 320 1010 427 b 617 939 1010 763 833 939 b 226 547 401 939 226 763 "},"q":{"ha":1236,"x_min":0,"x_max":0,"o":"m 1183 545 b 618 1112 1183 857 928 1112 b 53 545 307 1112 53 857 b 617 -18 53 236 307 -18 b 876 45 710 -18 798 5 b 1155 -52 947 -7 1035 -46 l 1173 116 b 1017 148 1112 119 1061 130 b 1183 545 1120 250 1183 391 m 226 547 b 617 939 226 763 401 939 b 1010 547 833 939 1010 763 b 870 248 1010 427 956 320 b 467 524 752 363 679 513 l 456 376 b 740 176 579 370 652 275 b 617 156 701 163 660 156 b 226 547 401 156 226 332 "},"R":{"ha":927,"x_min":0,"x_max":0,"o":"m 706 0 l 412 423 l 277 423 l 277 0 l 106 0 l 105 1093 l 445 1093 b 815 742 648 1093 815 937 b 599 437 815 601 724 478 l 917 0 m 449 566 b 638 746 552 565 638 648 b 449 923 638 848 551 923 l 277 923 l 277 566 "},"r":{"ha":927,"x_min":0,"x_max":0,"o":"m 917 0 l 599 437 b 815 742 724 478 815 601 b 445 1093 815 937 648 1093 l 105 1093 l 106 0 l 277 0 l 277 423 l 412 423 l 706 0 m 277 566 l 277 923 l 449 923 b 638 746 551 923 638 848 b 449 566 638 648 552 565 "},"Ŕ":{"ha":927,"x_min":0,"x_max":0,"o":"m 490 1183 l 366 1183 l 500 1405 l 651 1405 m 706 0 l 412 423 l 277 423 l 277 0 l 106 0 l 105 1093 l 445 1093 b 815 742 648 1093 815 937 b 599 437 815 601 724 478 l 917 0 m 449 566 b 638 746 552 565 638 648 b 449 923 638 848 551 923 l 277 923 l 277 566 "},"ŕ":{"ha":927,"x_min":0,"x_max":0,"o":"m 651 1405 l 500 1405 l 366 1183 l 490 1183 m 917 0 l 599 437 b 815 742 724 478 815 601 b 445 1093 815 937 648 1093 l 105 1093 l 106 0 l 277 0 l 277 423 l 412 423 l 706 0 m 277 566 l 277 923 l 449 923 b 638 746 551 923 638 848 b 449 566 638 648 552 565 "},"Ř":{"ha":927,"x_min":0,"x_max":0,"o":"m 421 1194 l 208 1392 l 347 1392 l 469 1275 l 593 1392 l 732 1392 l 517 1194 m 706 0 l 412 423 l 277 423 l 277 0 l 106 0 l 105 1093 l 445 1093 b 815 742 648 1093 815 937 b 599 437 815 601 724 478 l 917 0 m 449 566 b 638 746 552 565 638 648 b 449 923 638 848 551 923 l 277 923 l 277 566 "},"ř":{"ha":927,"x_min":0,"x_max":0,"o":"m 517 1194 l 732 1392 l 593 1392 l 469 1275 l 347 1392 l 208 1392 l 421 1194 m 917 0 l 599 437 b 815 742 724 478 815 601 b 445 1093 815 937 648 1093 l 105 1093 l 106 0 l 277 0 l 277 423 l 412 423 l 706 0 m 277 566 l 277 923 l 449 923 b 638 746 551 923 638 848 b 449 566 638 648 552 565 "},"Ŗ":{"ha":927,"x_min":0,"x_max":0,"o":"m 917 0 l 706 0 l 412 423 l 277 423 l 277 0 l 106 0 l 105 1093 l 445 1093 b 815 742 648 1093 815 937 b 599 437 815 601 724 478 m 449 566 b 638 746 552 565 638 648 b 449 923 638 848 551 923 l 277 923 l 277 566 m 476 -79 b 564 -188 521 -79 564 -113 b 421 -368 564 -288 498 -368 b 379 -348 395 -368 379 -355 b 474 -252 411 -348 474 -321 b 465 -218 474 -236 472 -227 b 393 -153 432 -218 393 -194 b 476 -79 393 -113 428 -79 "},"ŗ":{"ha":927,"x_min":0,"x_max":0,"o":"m 599 437 b 815 742 724 478 815 601 b 445 1093 815 937 648 1093 l 105 1093 l 106 0 l 277 0 l 277 423 l 412 423 l 706 0 l 917 0 m 277 566 l 277 923 l 449 923 b 638 746 551 923 638 848 b 449 566 638 648 552 565 m 476 -79 b 393 -153 428 -79 393 -113 b 465 -218 393 -194 432 -218 b 474 -252 472 -227 474 -236 b 379 -348 474 -321 411 -348 b 421 -368 379 -355 395 -368 b 564 -188 498 -368 564 -288 b 476 -79 564 -113 521 -79 "},"S":{"ha":852,"x_min":0,"x_max":0,"o":"m 420 -18 b 42 192 241 -18 104 66 l 178 289 b 422 155 227 203 317 155 b 638 297 545 155 638 214 b 367 514 638 398 494 459 b 96 809 239 571 96 637 b 448 1113 96 988 252 1113 b 766 918 604 1113 721 1038 l 638 829 b 450 945 604 903 529 945 b 269 805 349 945 269 882 b 503 632 269 720 370 689 b 810 300 676 556 810 473 b 420 -18 810 106 642 -18 "},"s":{"ha":852,"x_min":0,"x_max":0,"o":"m 420 -18 b 810 300 642 -18 810 106 b 503 632 810 473 676 556 b 269 805 370 689 269 720 b 450 945 269 882 349 945 b 638 829 529 945 604 903 l 766 918 b 448 1113 721 1038 604 1113 b 96 809 252 1113 96 988 b 367 514 96 637 239 571 b 638 297 494 459 638 398 b 422 155 638 214 545 155 b 178 289 317 155 227 203 l 42 192 b 420 -18 104 66 241 -18 "},"Ś":{"ha":852,"x_min":0,"x_max":0,"o":"m 328 1183 l 462 1405 l 613 1405 l 452 1183 m 420 -18 b 42 192 241 -18 104 66 l 178 289 b 422 155 227 203 317 155 b 638 297 545 155 638 214 b 367 514 638 398 494 459 b 96 809 239 571 96 637 b 448 1113 96 988 252 1113 b 766 918 604 1113 721 1038 l 638 829 b 450 945 604 903 529 945 b 269 805 349 945 269 882 b 503 632 269 720 370 689 b 810 300 676 556 810 473 b 420 -18 810 106 642 -18 "},"ś":{"ha":852,"x_min":0,"x_max":0,"o":"m 452 1183 l 613 1405 l 462 1405 l 328 1183 m 420 -18 b 810 300 642 -18 810 106 b 503 632 810 473 676 556 b 269 805 370 689 269 720 b 450 945 269 882 349 945 b 638 829 529 945 604 903 l 766 918 b 448 1113 721 1038 604 1113 b 96 809 252 1113 96 988 b 367 514 96 637 239 571 b 638 297 494 459 638 398 b 422 155 638 214 545 155 b 178 289 317 155 227 203 l 42 192 b 420 -18 104 66 241 -18 "},"Š":{"ha":852,"x_min":0,"x_max":0,"o":"m 309 1392 l 431 1275 l 555 1392 l 694 1392 l 479 1194 l 383 1194 l 170 1392 m 420 -18 b 42 192 241 -18 104 66 l 178 289 b 422 155 227 203 317 155 b 638 297 545 155 638 214 b 367 514 638 398 494 459 b 96 809 239 571 96 637 b 448 1113 96 988 252 1113 b 766 918 604 1113 721 1038 l 638 829 b 450 945 604 903 529 945 b 269 805 349 945 269 882 b 503 632 269 720 370 689 b 810 300 676 556 810 473 b 420 -18 810 106 642 -18 "},"š":{"ha":852,"x_min":0,"x_max":0,"o":"m 170 1392 l 383 1194 l 479 1194 l 694 1392 l 555 1392 l 431 1275 l 309 1392 m 420 -18 b 810 300 642 -18 810 106 b 503 632 810 473 676 556 b 269 805 370 689 269 720 b 450 945 269 882 349 945 b 638 829 529 945 604 903 l 766 918 b 448 1113 721 1038 604 1113 b 96 809 252 1113 96 988 b 367 514 96 637 239 571 b 638 297 494 459 638 398 b 422 155 638 214 545 155 b 178 289 317 155 227 203 l 42 192 b 420 -18 104 66 241 -18 "},"Ş":{"ha":852,"x_min":0,"x_max":0,"o":"m 810 300 b 479 -16 810 124 671 5 l 433 -75 b 464 -73 445 -74 453 -73 b 559 -172 519 -73 559 -115 b 296 -353 559 -267 450 -350 l 252 -248 b 441 -176 384 -244 441 -217 b 382 -138 441 -155 425 -138 b 342 -142 371 -138 357 -139 l 319 -112 l 391 -18 b 42 192 226 -9 101 73 l 178 289 b 422 155 227 203 317 155 b 638 297 545 155 638 214 b 367 514 638 398 494 459 b 96 809 239 571 96 637 b 448 1113 96 988 252 1113 b 766 918 604 1113 721 1038 l 638 829 b 450 945 604 903 529 945 b 269 805 349 945 269 882 b 503 632 269 720 370 689 b 810 300 676 556 810 473 "},"ş":{"ha":852,"x_min":0,"x_max":0,"o":"m 810 300 b 503 632 810 473 676 556 b 269 805 370 689 269 720 b 450 945 269 882 349 945 b 638 829 529 945 604 903 l 766 918 b 448 1113 721 1038 604 1113 b 96 809 252 1113 96 988 b 367 514 96 637 239 571 b 638 297 494 459 638 398 b 422 155 638 214 545 155 b 178 289 317 155 227 203 l 42 192 b 391 -18 101 73 226 -9 l 319 -112 l 342 -142 b 382 -138 357 -139 371 -138 b 441 -176 425 -138 441 -155 b 252 -248 441 -217 384 -244 l 296 -353 b 559 -172 450 -350 559 -267 b 464 -73 559 -115 519 -73 b 433 -75 453 -73 445 -74 l 479 -16 b 810 300 671 5 810 124 "},"Ș":{"ha":852,"x_min":0,"x_max":0,"o":"m 420 -18 b 42 192 241 -18 104 66 l 178 289 b 422 155 227 203 317 155 b 638 297 545 155 638 214 b 367 514 638 398 494 459 b 96 809 239 571 96 637 b 448 1113 96 988 252 1113 b 766 918 604 1113 721 1038 l 638 829 b 450 945 604 903 529 945 b 269 805 349 945 269 882 b 503 632 269 720 370 689 b 810 300 676 556 810 473 b 420 -18 810 106 642 -18 m 383 -368 b 341 -348 357 -368 341 -355 b 436 -252 373 -348 436 -321 b 427 -218 436 -236 434 -227 b 355 -153 394 -218 355 -194 b 438 -79 355 -113 390 -79 b 526 -188 483 -79 526 -113 b 383 -368 526 -288 460 -368 "},"ș":{"ha":852,"x_min":0,"x_max":0,"o":"m 420 -18 b 810 300 642 -18 810 106 b 503 632 810 473 676 556 b 269 805 370 689 269 720 b 450 945 269 882 349 945 b 638 829 529 945 604 903 l 766 918 b 448 1113 721 1038 604 1113 b 96 809 252 1113 96 988 b 367 514 96 637 239 571 b 638 297 494 459 638 398 b 422 155 638 214 545 155 b 178 289 317 155 227 203 l 42 192 b 420 -18 104 66 241 -18 m 383 -368 b 526 -188 460 -368 526 -288 b 438 -79 526 -113 483 -79 b 355 -153 390 -79 355 -113 b 427 -218 355 -194 394 -218 b 436 -252 434 -227 436 -236 b 341 -348 436 -321 373 -348 b 383 -368 341 -355 357 -368 "},"ß":{"ha":1200,"x_min":0,"x_max":0,"o":"m 894 671 b 1168 316 1081 581 1168 465 b 787 -22 1168 119 1031 -22 b 416 197 619 -22 497 52 l 536 316 b 791 151 607 208 683 151 b 996 309 915 151 996 212 b 788 543 996 398 895 484 b 542 647 739 570 629 625 l 740 908 b 545 957 680 941 612 957 b 278 720 391 957 278 867 l 278 0 l 105 0 l 105 720 b 579 1116 105 975 304 1116 b 1010 991 722 1116 879 1077 l 774 715 b 894 671 809 708 848 694 "},"ẞ":{"ha":1200,"x_min":0,"x_max":0,"o":"m 894 671 b 774 715 848 694 809 708 l 1010 991 b 579 1116 879 1077 722 1116 b 105 720 304 1116 105 975 l 105 0 l 278 0 l 278 720 b 545 957 278 867 391 957 b 740 908 612 957 680 941 l 542 647 b 788 543 629 625 739 570 b 996 309 895 484 996 398 b 791 151 996 212 915 151 b 536 316 683 151 607 208 l 416 197 b 787 -22 497 52 619 -22 b 1168 316 1031 -22 1168 119 b 894 671 1168 465 1081 581 "},"Ə":{"ha":1209,"x_min":0,"x_max":0,"o":"m 608 -8 b 53 547 295 -8 53 238 b 61 632 53 574 56 606 l 968 632 b 600 928 932 803 781 928 b 391 863 527 928 450 904 l 297 1008 b 603 1101 378 1061 494 1101 b 1156 545 916 1103 1156 848 b 608 -8 1156 238 911 -8 m 608 165 b 968 459 782 165 934 292 l 239 459 b 608 165 271 300 412 165 "},"ə":{"ha":1209,"x_min":0,"x_max":0,"o":"m 608 -8 b 1156 545 911 -8 1156 238 b 603 1101 1156 848 916 1103 b 297 1008 494 1101 378 1061 l 391 863 b 600 928 450 904 527 928 b 968 632 781 928 932 803 l 61 632 b 53 547 56 606 53 574 b 608 -8 53 238 295 -8 m 608 165 b 239 459 412 165 271 300 l 968 459 b 608 165 934 292 782 165 "},"T":{"ha":821,"x_min":0,"x_max":0,"o":"m 790 923 l 497 923 l 497 0 l 325 0 l 325 923 l 32 923 l 32 1093 l 790 1093 "},"t":{"ha":821,"x_min":0,"x_max":0,"o":"m 790 1093 l 32 1093 l 32 923 l 325 923 l 325 0 l 497 0 l 497 923 l 790 923 "},"Ŧ":{"ha":821,"x_min":0,"x_max":0,"o":"m 497 923 l 497 608 l 673 608 l 673 485 l 497 485 l 497 0 l 325 0 l 325 485 l 149 485 l 149 608 l 325 608 l 325 923 l 32 923 l 32 1093 l 790 1093 l 790 923 "},"ŧ":{"ha":821,"x_min":0,"x_max":0,"o":"m 790 923 l 790 1093 l 32 1093 l 32 923 l 325 923 l 325 608 l 149 608 l 149 485 l 325 485 l 325 0 l 497 0 l 497 485 l 673 485 l 673 608 l 497 608 l 497 923 "},"Ť":{"ha":821,"x_min":0,"x_max":0,"o":"m 362 1194 l 149 1392 l 288 1392 l 410 1275 l 534 1392 l 673 1392 l 458 1194 m 790 923 l 497 923 l 497 0 l 325 0 l 325 923 l 32 923 l 32 1093 l 790 1093 "},"ť":{"ha":821,"x_min":0,"x_max":0,"o":"m 458 1194 l 673 1392 l 534 1392 l 410 1275 l 288 1392 l 149 1392 l 362 1194 m 790 1093 l 32 1093 l 32 923 l 325 923 l 325 0 l 497 0 l 497 923 l 790 923 "},"Ţ":{"ha":821,"x_min":0,"x_max":0,"o":"m 470 0 l 412 -75 b 443 -73 424 -74 432 -73 b 538 -172 498 -73 538 -115 b 275 -353 538 -267 429 -350 l 231 -248 b 420 -176 363 -244 420 -217 b 361 -138 420 -155 404 -138 b 321 -142 350 -138 336 -139 l 298 -112 l 382 0 l 325 0 l 325 923 l 32 923 l 32 1093 l 790 1093 l 790 923 l 497 923 l 497 0 "},"ţ":{"ha":821,"x_min":0,"x_max":0,"o":"m 497 0 l 497 923 l 790 923 l 790 1093 l 32 1093 l 32 923 l 325 923 l 325 0 l 382 0 l 298 -112 l 321 -142 b 361 -138 336 -139 350 -138 b 420 -176 404 -138 420 -155 b 231 -248 420 -217 363 -244 l 275 -353 b 538 -172 429 -350 538 -267 b 443 -73 538 -115 498 -73 b 412 -75 432 -73 424 -74 l 470 0 "},"Ț":{"ha":821,"x_min":0,"x_max":0,"o":"m 790 1093 l 790 923 l 497 923 l 497 0 l 325 0 l 325 923 l 32 923 l 32 1093 m 416 -79 b 504 -188 461 -79 504 -113 b 361 -368 504 -288 439 -368 b 319 -348 335 -368 319 -355 b 414 -252 351 -348 414 -321 b 405 -218 414 -236 412 -227 b 333 -153 372 -218 333 -194 b 416 -79 333 -113 368 -79 "},"ț":{"ha":821,"x_min":0,"x_max":0,"o":"m 32 1093 l 32 923 l 325 923 l 325 0 l 497 0 l 497 923 l 790 923 l 790 1093 m 416 -79 b 333 -153 368 -79 333 -113 b 405 -218 333 -194 372 -218 b 414 -252 412 -227 414 -236 b 319 -348 414 -321 351 -348 b 361 -368 319 -355 335 -368 b 504 -188 439 -368 504 -288 b 416 -79 504 -113 461 -79 "},"U":{"ha":1016,"x_min":0,"x_max":0,"o":"m 508 -20 b 95 414 275 -20 95 163 l 95 1093 l 267 1093 l 267 415 b 507 153 267 264 374 153 b 749 415 641 153 749 264 l 749 1093 l 922 1093 l 922 414 b 508 -20 922 163 741 -20 "},"u":{"ha":1016,"x_min":0,"x_max":0,"o":"m 508 -20 b 922 414 741 -20 922 163 l 922 1093 l 749 1093 l 749 415 b 507 153 749 264 641 153 b 267 415 374 153 267 264 l 267 1093 l 95 1093 l 95 414 b 508 -20 95 163 275 -20 "},"Ú":{"ha":1016,"x_min":0,"x_max":0,"o":"m 403 1183 l 537 1405 l 688 1405 l 527 1183 m 508 -20 b 95 414 275 -20 95 163 l 95 1093 l 267 1093 l 267 415 b 507 153 267 264 374 153 b 749 415 641 153 749 264 l 749 1093 l 922 1093 l 922 414 b 508 -20 922 163 741 -20 "},"ú":{"ha":1016,"x_min":0,"x_max":0,"o":"m 527 1183 l 688 1405 l 537 1405 l 403 1183 m 508 -20 b 922 414 741 -20 922 163 l 922 1093 l 749 1093 l 749 415 b 507 153 749 264 641 153 b 267 415 374 153 267 264 l 267 1093 l 95 1093 l 95 414 b 508 -20 95 163 275 -20 "},"Û":{"ha":1016,"x_min":0,"x_max":0,"o":"m 459 1392 l 555 1392 l 770 1194 l 631 1194 l 507 1310 l 385 1194 l 246 1194 m 508 -20 b 95 414 275 -20 95 163 l 95 1093 l 267 1093 l 267 415 b 507 153 267 264 374 153 b 749 415 641 153 749 264 l 749 1093 l 922 1093 l 922 414 b 508 -20 922 163 741 -20 "},"û":{"ha":1016,"x_min":0,"x_max":0,"o":"m 246 1194 l 385 1194 l 507 1310 l 631 1194 l 770 1194 l 555 1392 l 459 1392 m 508 -20 b 922 414 741 -20 922 163 l 922 1093 l 749 1093 l 749 415 b 507 153 749 264 641 153 b 267 415 374 153 267 264 l 267 1093 l 95 1093 l 95 414 b 508 -20 95 163 275 -20 "},"Ü":{"ha":1016,"x_min":0,"x_max":0,"o":"m 356 1217 b 285 1287 317 1217 285 1249 b 356 1359 285 1326 317 1359 b 427 1287 395 1359 427 1326 b 356 1217 427 1249 395 1217 m 660 1217 b 589 1287 621 1217 589 1249 b 660 1359 589 1326 622 1359 b 732 1287 699 1359 732 1326 b 660 1217 732 1249 699 1217 m 508 -20 b 95 414 275 -20 95 163 l 95 1093 l 267 1093 l 267 415 b 507 153 267 264 374 153 b 749 415 641 153 749 264 l 749 1093 l 922 1093 l 922 414 b 508 -20 922 163 741 -20 "},"ü":{"ha":1016,"x_min":0,"x_max":0,"o":"m 356 1217 b 427 1287 395 1217 427 1249 b 356 1359 427 1326 395 1359 b 285 1287 317 1359 285 1326 b 356 1217 285 1249 317 1217 m 660 1217 b 732 1287 699 1217 732 1249 b 660 1359 732 1326 699 1359 b 589 1287 622 1359 589 1326 b 660 1217 589 1249 621 1217 m 508 -20 b 922 414 741 -20 922 163 l 922 1093 l 749 1093 l 749 415 b 507 153 749 264 641 153 b 267 415 374 153 267 264 l 267 1093 l 95 1093 l 95 414 b 508 -20 95 163 275 -20 "},"Ù":{"ha":1016,"x_min":0,"x_max":0,"o":"m 366 1405 l 517 1405 l 651 1183 l 527 1183 m 508 -20 b 95 414 275 -20 95 163 l 95 1093 l 267 1093 l 267 415 b 507 153 267 264 374 153 b 749 415 641 153 749 264 l 749 1093 l 922 1093 l 922 414 b 508 -20 922 163 741 -20 "},"ù":{"ha":1016,"x_min":0,"x_max":0,"o":"m 527 1183 l 651 1183 l 517 1405 l 366 1405 m 508 -20 b 922 414 741 -20 922 163 l 922 1093 l 749 1093 l 749 415 b 507 153 749 264 641 153 b 267 415 374 153 267 264 l 267 1093 l 95 1093 l 95 414 b 508 -20 95 163 275 -20 "},"Ű":{"ha":1016,"x_min":0,"x_max":0,"o":"m 410 1404 l 545 1404 l 414 1182 l 305 1182 m 661 1404 l 806 1404 l 633 1182 l 519 1182 m 508 -20 b 95 414 275 -20 95 163 l 95 1093 l 267 1093 l 267 415 b 507 153 267 264 374 153 b 749 415 641 153 749 264 l 749 1093 l 922 1093 l 922 414 b 508 -20 922 163 741 -20 "},"ű":{"ha":1016,"x_min":0,"x_max":0,"o":"m 305 1182 l 414 1182 l 545 1404 l 410 1404 m 519 1182 l 633 1182 l 806 1404 l 661 1404 m 508 -20 b 922 414 741 -20 922 163 l 922 1093 l 749 1093 l 749 415 b 507 153 749 264 641 153 b 267 415 374 153 267 264 l 267 1093 l 95 1093 l 95 414 b 508 -20 95 163 275 -20 "},"Ū":{"ha":1016,"x_min":0,"x_max":0,"o":"m 314 1319 l 702 1319 l 702 1230 l 314 1230 m 508 -20 b 95 414 275 -20 95 163 l 95 1093 l 267 1093 l 267 415 b 507 153 267 264 374 153 b 749 415 641 153 749 264 l 749 1093 l 922 1093 l 922 414 b 508 -20 922 163 741 -20 "},"ū":{"ha":1016,"x_min":0,"x_max":0,"o":"m 314 1230 l 702 1230 l 702 1319 l 314 1319 m 508 -20 b 922 414 741 -20 922 163 l 922 1093 l 749 1093 l 749 415 b 507 153 749 264 641 153 b 267 415 374 153 267 264 l 267 1093 l 95 1093 l 95 414 b 508 -20 95 163 275 -20 "},"Ų":{"ha":1016,"x_min":0,"x_max":0,"o":"m 922 1093 l 922 414 b 595 -12 922 196 785 28 b 465 -165 515 -66 465 -112 b 534 -231 465 -185 473 -231 b 606 -221 548 -231 576 -228 l 628 -339 b 523 -352 589 -348 553 -352 b 342 -205 409 -352 342 -296 b 458 -18 342 -126 392 -60 b 95 414 250 7 95 182 l 95 1093 l 267 1093 l 267 415 b 507 153 267 264 374 153 b 749 415 641 153 749 264 l 749 1093 "},"ų":{"ha":1016,"x_min":0,"x_max":0,"o":"m 749 1093 l 749 415 b 507 153 749 264 641 153 b 267 415 374 153 267 264 l 267 1093 l 95 1093 l 95 414 b 458 -18 95 182 250 7 b 342 -205 392 -60 342 -126 b 523 -352 342 -296 409 -352 b 628 -339 553 -352 589 -348 l 606 -221 b 534 -231 576 -228 548 -231 b 465 -165 473 -231 465 -185 b 595 -12 465 -112 515 -66 b 922 414 785 28 922 196 l 922 1093 "},"Ů":{"ha":1016,"x_min":0,"x_max":0,"o":"m 508 1162 b 362 1308 428 1162 362 1228 b 508 1454 362 1388 428 1454 b 653 1308 587 1454 653 1388 b 508 1162 653 1229 587 1162 m 508 1236 b 580 1308 548 1236 580 1268 b 508 1380 580 1348 548 1380 b 435 1308 468 1380 435 1348 b 508 1236 435 1268 468 1236 m 508 -20 b 95 414 275 -20 95 163 l 95 1093 l 267 1093 l 267 415 b 507 153 267 264 374 153 b 749 415 641 153 749 264 l 749 1093 l 922 1093 l 922 414 b 508 -20 922 163 741 -20 "},"ů":{"ha":1016,"x_min":0,"x_max":0,"o":"m 508 1162 b 653 1308 587 1162 653 1229 b 508 1454 653 1388 587 1454 b 362 1308 428 1454 362 1388 b 508 1162 362 1228 428 1162 m 508 1236 b 435 1308 468 1236 435 1268 b 508 1380 435 1348 468 1380 b 580 1308 548 1380 580 1348 b 508 1236 580 1268 548 1236 m 508 -20 b 922 414 741 -20 922 163 l 922 1093 l 749 1093 l 749 415 b 507 153 749 264 641 153 b 267 415 374 153 267 264 l 267 1093 l 95 1093 l 95 414 b 508 -20 95 163 275 -20 "},"V":{"ha":1050,"x_min":0,"x_max":0,"o":"m 1034 1093 l 530 -22 l 518 -22 l 16 1093 l 198 1093 l 524 353 l 850 1093 "},"v":{"ha":1050,"x_min":0,"x_max":0,"o":"m 850 1093 l 524 353 l 198 1093 l 16 1093 l 518 -22 l 530 -22 l 1034 1093 "},"W":{"ha":1314,"x_min":0,"x_max":0,"o":"m 16 1093 l 201 1093 l 404 418 l 654 1047 l 661 1047 l 911 419 l 1113 1093 l 1298 1093 l 951 -10 l 935 -10 l 655 649 l 379 -10 l 363 -10 "},"w":{"ha":1314,"x_min":0,"x_max":0,"o":"m 363 -10 l 379 -10 l 655 649 l 935 -10 l 951 -10 l 1298 1093 l 1113 1093 l 911 419 l 661 1047 l 654 1047 l 404 418 l 201 1093 l 16 1093 "},"Ẃ":{"ha":1314,"x_min":0,"x_max":0,"o":"m 553 1183 l 687 1405 l 838 1405 l 677 1183 m 16 1093 l 201 1093 l 404 418 l 654 1047 l 661 1047 l 911 419 l 1113 1093 l 1298 1093 l 951 -10 l 935 -10 l 655 649 l 379 -10 l 363 -10 "},"ẃ":{"ha":1314,"x_min":0,"x_max":0,"o":"m 677 1183 l 838 1405 l 687 1405 l 553 1183 m 363 -10 l 379 -10 l 655 649 l 935 -10 l 951 -10 l 1298 1093 l 1113 1093 l 911 419 l 661 1047 l 654 1047 l 404 418 l 201 1093 l 16 1093 "},"Ŵ":{"ha":1314,"x_min":0,"x_max":0,"o":"m 608 1392 l 705 1392 l 920 1194 l 780 1194 l 656 1310 l 534 1194 l 395 1194 m 16 1093 l 201 1093 l 404 418 l 654 1047 l 661 1047 l 911 419 l 1113 1093 l 1298 1093 l 951 -10 l 935 -10 l 655 649 l 379 -10 l 363 -10 "},"ŵ":{"ha":1314,"x_min":0,"x_max":0,"o":"m 395 1194 l 534 1194 l 656 1310 l 780 1194 l 920 1194 l 705 1392 l 608 1392 m 363 -10 l 379 -10 l 655 649 l 935 -10 l 951 -10 l 1298 1093 l 1113 1093 l 911 419 l 661 1047 l 654 1047 l 404 418 l 201 1093 l 16 1093 "},"Ẅ":{"ha":1314,"x_min":0,"x_max":0,"o":"m 505 1217 b 434 1287 467 1217 434 1249 b 505 1359 434 1326 467 1359 b 576 1287 544 1359 576 1326 b 505 1217 576 1249 544 1217 m 809 1217 b 739 1287 770 1217 739 1249 b 809 1359 739 1326 771 1359 b 881 1287 848 1359 881 1326 b 809 1217 881 1249 848 1217 m 16 1093 l 201 1093 l 404 418 l 654 1047 l 661 1047 l 911 419 l 1113 1093 l 1298 1093 l 951 -10 l 935 -10 l 655 649 l 379 -10 l 363 -10 "},"ẅ":{"ha":1314,"x_min":0,"x_max":0,"o":"m 505 1217 b 576 1287 544 1217 576 1249 b 505 1359 576 1326 544 1359 b 434 1287 467 1359 434 1326 b 505 1217 434 1249 467 1217 m 809 1217 b 881 1287 848 1217 881 1249 b 809 1359 881 1326 848 1359 b 739 1287 771 1359 739 1326 b 809 1217 739 1249 770 1217 m 363 -10 l 379 -10 l 655 649 l 935 -10 l 951 -10 l 1298 1093 l 1113 1093 l 911 419 l 661 1047 l 654 1047 l 404 418 l 201 1093 l 16 1093 "},"Ẁ":{"ha":1314,"x_min":0,"x_max":0,"o":"m 515 1405 l 666 1405 l 800 1183 l 676 1183 m 16 1093 l 201 1093 l 404 418 l 654 1047 l 661 1047 l 911 419 l 1113 1093 l 1298 1093 l 951 -10 l 935 -10 l 655 649 l 379 -10 l 363 -10 "},"ẁ":{"ha":1314,"x_min":0,"x_max":0,"o":"m 676 1183 l 800 1183 l 666 1405 l 515 1405 m 363 -10 l 379 -10 l 655 649 l 935 -10 l 951 -10 l 1298 1093 l 1113 1093 l 911 419 l 661 1047 l 654 1047 l 404 418 l 201 1093 l 16 1093 "},"X":{"ha":934,"x_min":0,"x_max":0,"o":"m 367 568 l 39 1093 l 237 1093 l 467 719 l 696 1093 l 894 1093 l 566 568 l 918 0 l 722 0 l 467 412 l 212 0 l 16 0 "},"x":{"ha":934,"x_min":0,"x_max":0,"o":"m 16 0 l 212 0 l 467 412 l 722 0 l 918 0 l 566 568 l 894 1093 l 696 1093 l 467 719 l 237 1093 l 39 1093 l 367 568 "},"Y":{"ha":928,"x_min":0,"x_max":0,"o":"m 378 467 l 16 1093 l 209 1093 l 463 658 l 718 1093 l 911 1093 l 549 467 l 549 0 l 378 0 "},"y":{"ha":928,"x_min":0,"x_max":0,"o":"m 378 0 l 549 0 l 549 467 l 911 1093 l 718 1093 l 463 658 l 209 1093 l 16 1093 l 378 467 "},"Ý":{"ha":928,"x_min":0,"x_max":0,"o":"m 359 1183 l 494 1405 l 645 1405 l 484 1183 m 378 467 l 16 1093 l 209 1093 l 463 658 l 718 1093 l 911 1093 l 549 467 l 549 0 l 378 0 "},"ý":{"ha":928,"x_min":0,"x_max":0,"o":"m 484 1183 l 645 1405 l 494 1405 l 359 1183 m 378 0 l 549 0 l 549 467 l 911 1093 l 718 1093 l 463 658 l 209 1093 l 16 1093 l 378 467 "},"Ŷ":{"ha":928,"x_min":0,"x_max":0,"o":"m 415 1392 l 511 1392 l 726 1194 l 587 1194 l 463 1310 l 340 1194 l 202 1194 m 378 467 l 16 1093 l 209 1093 l 463 658 l 718 1093 l 911 1093 l 549 467 l 549 0 l 378 0 "},"ŷ":{"ha":928,"x_min":0,"x_max":0,"o":"m 202 1194 l 340 1194 l 463 1310 l 587 1194 l 726 1194 l 511 1392 l 415 1392 m 378 0 l 549 0 l 549 467 l 911 1093 l 718 1093 l 463 658 l 209 1093 l 16 1093 l 378 467 "},"ÿ":{"ha":928,"x_min":0,"x_max":0,"o":"m 312 1217 b 241 1287 273 1217 241 1249 b 312 1359 241 1326 273 1359 b 383 1287 351 1359 383 1326 b 312 1217 383 1249 351 1217 m 616 1217 b 545 1287 577 1217 545 1249 b 616 1359 545 1326 578 1359 b 688 1287 655 1359 688 1326 b 616 1217 688 1249 655 1217 m 378 467 l 16 1093 l 209 1093 l 463 658 l 718 1093 l 911 1093 l 549 467 l 549 0 l 378 0 "},"Ÿ":{"ha":928,"x_min":0,"x_max":0,"o":"m 312 1217 b 383 1287 351 1217 383 1249 b 312 1359 383 1326 351 1359 b 241 1287 273 1359 241 1326 b 312 1217 241 1249 273 1217 m 616 1217 b 688 1287 655 1217 688 1249 b 616 1359 688 1326 655 1359 b 545 1287 578 1359 545 1326 b 616 1217 545 1249 577 1217 m 378 0 l 549 0 l 549 467 l 911 1093 l 718 1093 l 463 658 l 209 1093 l 16 1093 l 378 467 "},"Ỳ":{"ha":928,"x_min":0,"x_max":0,"o":"m 321 1405 l 473 1405 l 607 1183 l 483 1183 m 378 467 l 16 1093 l 209 1093 l 463 658 l 718 1093 l 911 1093 l 549 467 l 549 0 l 378 0 "},"ỳ":{"ha":928,"x_min":0,"x_max":0,"o":"m 483 1183 l 607 1183 l 473 1405 l 321 1405 m 378 0 l 549 0 l 549 467 l 911 1093 l 718 1093 l 463 658 l 209 1093 l 16 1093 l 378 467 "},"Z":{"ha":895,"x_min":0,"x_max":0,"o":"m 559 923 l 63 923 l 63 1093 l 832 1093 l 337 171 l 832 171 l 832 0 l 63 0 "},"z":{"ha":895,"x_min":0,"x_max":0,"o":"m 63 0 l 832 0 l 832 171 l 337 171 l 832 1093 l 63 1093 l 63 923 l 559 923 "},"Ź":{"ha":895,"x_min":0,"x_max":0,"o":"m 342 1183 l 477 1405 l 628 1405 l 467 1183 m 559 923 l 63 923 l 63 1093 l 832 1093 l 337 171 l 832 171 l 832 0 l 63 0 "},"ź":{"ha":895,"x_min":0,"x_max":0,"o":"m 467 1183 l 628 1405 l 477 1405 l 342 1183 m 63 0 l 832 0 l 832 171 l 337 171 l 832 1093 l 63 1093 l 63 923 l 559 923 "},"Ž":{"ha":895,"x_min":0,"x_max":0,"o":"m 324 1392 l 447 1275 l 570 1392 l 709 1392 l 494 1194 l 399 1194 l 186 1392 m 559 923 l 63 923 l 63 1093 l 832 1093 l 337 171 l 832 171 l 832 0 l 63 0 "},"ž":{"ha":895,"x_min":0,"x_max":0,"o":"m 186 1392 l 399 1194 l 494 1194 l 709 1392 l 570 1392 l 447 1275 l 324 1392 m 63 0 l 832 0 l 832 171 l 337 171 l 832 1093 l 63 1093 l 63 923 l 559 923 "},"Ż":{"ha":895,"x_min":0,"x_max":0,"o":"m 448 1217 b 366 1297 402 1217 366 1253 b 448 1379 366 1341 403 1379 b 529 1297 492 1379 529 1341 b 448 1217 529 1253 492 1217 m 559 923 l 63 923 l 63 1093 l 832 1093 l 337 171 l 832 171 l 832 0 l 63 0 "},"ż":{"ha":895,"x_min":0,"x_max":0,"o":"m 448 1217 b 529 1297 492 1217 529 1253 b 448 1379 529 1341 492 1379 b 366 1297 403 1379 366 1341 b 448 1217 366 1253 402 1217 m 63 0 l 832 0 l 832 171 l 337 171 l 832 1093 l 63 1093 l 63 923 l 559 923 "},"i":{"ha":382,"x_min":0,"x_max":0,"o":"m 105 1093 l 277 1093 l 277 0 l 105 0 "},"ı":{"ha":382,"x_min":0,"x_max":0,"o":"m 105 1093 l 277 1093 l 277 0 l 105 0 "},".":{"ha":388,"x_min":0,"x_max":0,"o":"m 194 -31 b 79 83 131 -31 79 20 b 194 199 79 146 131 199 b 309 83 256 199 309 146 b 194 -31 309 20 257 -31 "},",":{"ha":420,"x_min":0,"x_max":0,"o":"m 145 -250 b 82 -218 105 -250 82 -229 b 208 -80 127 -218 208 -178 b 196 -28 208 -55 205 -43 b 93 77 151 -28 93 7 b 215 199 93 142 144 199 b 342 25 283 199 342 142 b 145 -250 342 -123 258 -250 "},":":{"ha":388,"x_min":0,"x_max":0,"o":"m 194 525 b 79 640 131 525 79 576 b 194 755 79 703 131 755 b 309 640 257 755 309 703 b 194 525 309 576 257 525 m 194 0 b 79 115 131 0 79 52 b 194 231 79 178 131 231 b 309 115 256 231 309 178 b 194 0 309 52 257 0 "},";":{"ha":432,"x_min":0,"x_max":0,"o":"m 208 525 b 93 640 144 525 93 576 b 208 755 93 703 144 755 b 323 640 271 755 323 703 b 208 525 323 576 271 525 m 157 -250 b 94 -218 117 -250 94 -229 b 220 -80 139 -218 220 -178 b 208 -28 220 -55 217 -43 b 104 77 163 -28 104 7 b 227 199 104 142 156 199 b 353 25 295 199 353 142 b 157 -250 353 -123 270 -250 "},"…":{"ha":1394,"x_min":0,"x_max":0,"o":"m 251 -31 b 136 83 187 -31 136 20 b 251 199 136 146 188 199 b 366 83 313 199 366 146 b 251 -31 366 20 313 -31 m 696 -31 b 582 83 633 -31 582 20 b 696 199 582 146 634 199 b 812 83 759 199 812 146 b 696 -31 812 20 760 -31 m 1143 -31 b 1027 83 1079 -31 1027 20 b 1143 199 1027 146 1080 199 b 1258 83 1205 199 1258 146 b 1143 -31 1258 20 1205 -31 "},"!":{"ha":441,"x_min":0,"x_max":0,"o":"m 121 1093 l 317 1093 l 292 347 l 148 347 m 220 -31 b 105 83 157 -31 105 20 b 219 196 105 146 157 196 b 336 81 283 196 336 144 b 220 -31 336 18 283 -31 "},"¡":{"ha":441,"x_min":0,"x_max":0,"o":"m 220 819 b 336 705 283 819 336 768 b 222 592 336 642 283 592 b 105 707 157 592 105 645 b 220 819 105 770 157 819 m 320 -305 l 123 -305 l 149 441 l 293 441 "},"?":{"ha":718,"x_min":0,"x_max":0,"o":"m 239 366 b 447 675 239 493 323 578 b 508 801 479 700 508 749 b 323 963 508 899 431 963 b 115 842 233 963 145 915 l 53 978 b 332 1129 80 1029 163 1129 b 665 832 528 1129 665 976 b 575 602 665 733 635 660 b 401 374 496 528 404 500 b 401 347 401 366 401 357 l 239 346 m 323 -31 b 208 83 258 -31 208 21 b 321 196 208 146 259 196 b 437 81 385 196 437 144 b 323 -31 437 18 385 -31 "},"¿":{"ha":718,"x_min":0,"x_max":0,"o":"m 395 838 b 510 724 460 838 510 786 b 396 611 510 661 458 611 b 280 726 332 611 280 663 b 395 838 280 789 332 838 m 478 441 b 271 132 478 314 395 229 b 210 6 239 107 210 58 b 395 -156 210 -92 287 -156 b 603 -35 486 -156 572 -108 l 665 -171 b 386 -322 638 -222 555 -322 b 53 -25 191 -322 53 -169 b 143 205 53 74 83 147 b 317 433 222 279 315 307 b 316 460 317 441 317 450 l 478 461 "},"·":{"ha":388,"x_min":0,"x_max":0,"o":"m 194 418 b 79 532 131 418 79 469 b 194 648 79 595 131 648 b 309 532 256 648 309 595 b 194 418 309 470 257 418 "},"•":{"ha":694,"x_min":0,"x_max":0,"o":"m 347 345 b 159 530 243 345 159 428 b 347 718 159 633 243 718 b 534 531 450 718 534 633 b 347 345 534 429 450 345 "},"*":{"ha":576,"x_min":0,"x_max":0,"o":"m 250 831 l 115 718 l 53 808 l 228 895 l 53 980 l 115 1071 l 250 959 l 230 1148 l 346 1148 l 326 959 l 462 1071 l 524 980 l 348 892 l 524 808 l 462 718 l 326 829 l 346 641 l 230 641 "},"#":{"ha":1029,"x_min":0,"x_max":0,"o":"m 802 654 l 768 400 l 944 400 l 926 271 l 751 271 l 715 0 l 576 0 l 612 271 l 354 271 l 319 0 l 180 0 l 215 271 l 38 271 l 55 400 l 233 400 l 266 654 l 85 654 l 104 784 l 283 784 l 323 1093 l 463 1093 l 422 784 l 680 784 l 720 1093 l 859 1093 l 819 784 l 991 784 l 975 654 m 663 654 l 405 654 l 372 400 l 629 400 "},"/":{"ha":624,"x_min":0,"x_max":0,"o":"m 456 1175 l 608 1175 l 167 -81 l 16 -81 "},"\\":{"ha":624,"x_min":0,"x_max":0,"o":"m 457 -81 l 16 1175 l 168 1175 l 608 -81 "},"‥":{"ha":899,"x_min":0,"x_max":0,"o":"m 251 -31 b 136 83 187 -31 136 20 b 251 199 136 146 188 199 b 366 83 313 199 366 146 b 251 -31 366 20 313 -31 m 648 -31 b 532 83 584 -31 532 20 b 648 199 532 146 585 199 b 763 83 710 199 763 146 b 648 -31 763 20 710 -31 "},"(":{"ha":452,"x_min":0,"x_max":0,"o":"m 243 -81 b 53 554 105 108 53 335 b 231 1175 53 762 99 983 l 386 1175 b 216 553 289 1014 216 754 b 399 -81 216 343 296 76 l 243 -81 "},")":{"ha":452,"x_min":0,"x_max":0,"o":"m 53 -81 b 237 553 157 76 237 343 b 66 1175 237 754 163 1014 l 222 1175 b 399 554 353 983 399 762 b 209 -81 399 335 347 108 "},"{":{"ha":591,"x_min":0,"x_max":0,"o":"m 382 -81 b 202 132 283 -81 202 14 l 202 258 b 53 498 202 390 138 498 l 53 604 b 202 844 138 604 202 711 l 202 962 b 382 1175 202 1079 283 1175 l 538 1175 l 538 1045 l 427 1043 b 350 892 385 1042 350 974 l 350 823 b 205 551 350 673 285 551 b 350 279 285 551 350 429 l 350 202 b 427 49 350 118 385 49 l 538 49 l 538 -81 l 382 -81 "},"}":{"ha":591,"x_min":0,"x_max":0,"o":"m 53 -81 l 53 49 l 164 49 b 241 202 206 49 241 118 l 241 279 b 386 551 241 429 306 551 b 241 823 306 551 241 673 l 241 892 b 164 1043 241 974 206 1042 l 53 1045 l 53 1175 l 208 1175 b 389 962 308 1175 389 1079 l 389 844 b 538 604 389 711 453 604 l 538 498 b 389 258 453 498 389 390 l 389 132 b 208 -81 389 14 308 -81 "},"[":{"ha":474,"x_min":0,"x_max":0,"o":"m 254 1045 l 254 49 l 422 49 l 422 -81 l 105 -81 l 105 1175 l 422 1175 l 422 1045 "},"]":{"ha":474,"x_min":0,"x_max":0,"o":"m 369 -81 l 53 -81 l 53 49 l 221 49 l 221 1045 l 53 1045 l 53 1175 l 369 1175 "},"-":{"ha":641,"x_min":0,"x_max":0,"o":"m 53 608 l 589 608 l 589 458 l 53 458 "},"–":{"ha":960,"x_min":0,"x_max":0,"o":"m 56 608 l 905 608 l 905 458 l 56 458 "},"—":{"ha":1389,"x_min":0,"x_max":0,"o":"m 39 608 l 1351 608 l 1351 458 l 39 458 "},"‒":{"ha":715,"x_min":0,"x_max":0,"o":"m 53 608 l 663 608 l 663 458 l 53 458 "},"_":{"ha":820,"x_min":0,"x_max":0,"o":"m 0 60 l 820 60 l 820 -60 l 0 -60 "},"‚":{"ha":347,"x_min":0,"x_max":0,"o":"m 114 -212 b 55 -182 77 -212 55 -192 b 172 -53 98 -182 172 -145 b 161 -4 172 -30 170 -19 b 65 94 120 -4 65 28 b 179 207 65 155 113 207 b 297 45 243 207 297 153 b 114 -212 297 -94 220 -212 "},"„":{"ha":648,"x_min":0,"x_max":0,"o":"m 114 -213 b 55 -184 77 -213 55 -193 b 172 -54 98 -184 172 -146 b 161 -5 172 -31 170 -20 b 65 92 120 -5 65 27 b 179 205 65 153 113 205 b 297 43 243 205 297 152 b 114 -213 297 -95 220 -213 m 414 -213 b 355 -184 377 -213 355 -193 b 473 -54 398 -184 473 -146 b 462 -5 473 -31 471 -20 b 366 92 420 -5 366 27 b 479 205 366 153 414 205 b 597 43 543 205 597 152 b 414 -213 597 -95 520 -213 "},"“":{"ha":648,"x_min":0,"x_max":0,"o":"m 233 1110 b 292 1080 271 1110 292 1090 b 175 951 250 1080 175 1043 b 186 903 175 928 177 918 b 282 805 228 903 282 869 b 168 692 282 744 234 692 b 50 854 104 692 50 745 b 233 1110 50 992 127 1110 m 534 1110 b 593 1080 572 1110 593 1090 b 475 951 550 1080 475 1043 b 486 903 475 928 477 918 b 583 805 528 903 583 869 b 469 692 583 744 534 692 b 351 854 405 692 351 745 b 534 1110 351 992 428 1110 "},"”":{"ha":648,"x_min":0,"x_max":0,"o":"m 114 701 b 55 730 77 701 55 721 b 172 860 98 730 172 768 b 161 908 172 883 170 894 b 65 1006 120 908 65 941 b 179 1120 65 1067 113 1120 b 297 958 243 1120 297 1066 b 114 701 297 819 220 701 m 414 701 b 355 730 377 701 355 721 b 473 860 398 730 473 768 b 462 908 473 883 471 894 b 366 1006 420 908 366 941 b 479 1120 366 1067 414 1120 b 597 958 543 1120 597 1066 b 414 701 597 819 520 701 "},"‘":{"ha":347,"x_min":0,"x_max":0,"o":"m 233 1112 b 292 1082 271 1112 292 1091 b 175 952 250 1082 175 1044 b 186 904 175 929 177 919 b 282 806 228 904 282 871 b 168 693 282 745 234 693 b 50 855 104 693 50 746 b 233 1112 50 994 127 1112 "},"’":{"ha":347,"x_min":0,"x_max":0,"o":"m 114 703 b 55 732 77 703 55 723 b 172 862 98 732 172 770 b 161 910 172 885 170 896 b 65 1008 120 910 65 943 b 179 1122 65 1069 113 1122 b 297 960 243 1122 297 1068 b 114 703 297 821 220 703 "},"‛":{"ha":347,"x_min":0,"x_max":0,"o":"m 233 706 b 50 962 127 706 50 824 b 168 1124 50 1072 104 1124 b 282 1011 234 1124 282 1072 b 186 913 282 947 228 913 b 175 865 177 899 175 888 b 292 736 175 773 250 736 b 233 706 292 726 271 706 "},"«":{"ha":802,"x_min":0,"x_max":0,"o":"m 216 539 l 419 208 l 310 184 l 53 539 l 310 895 l 419 871 m 546 539 l 750 208 l 640 184 l 383 539 l 640 895 l 750 871 "},"»":{"ha":802,"x_min":0,"x_max":0,"o":"m 419 539 l 162 184 l 53 208 l 256 539 l 53 871 l 162 895 m 750 539 l 493 184 l 383 208 l 587 539 l 383 871 l 493 895 "},"‹":{"ha":472,"x_min":0,"x_max":0,"o":"m 216 539 l 419 208 l 310 184 l 53 539 l 310 895 l 419 871 "},"›":{"ha":472,"x_min":0,"x_max":0,"o":"m 419 539 l 162 184 l 53 208 l 256 539 l 53 871 l 162 895 "},"\"":{"ha":519,"x_min":0,"x_max":0,"o":"m 53 1121 l 225 1121 l 188 765 l 89 765 m 294 1121 l 467 1121 l 430 765 l 330 765 "},"'":{"ha":277,"x_min":0,"x_max":0,"o":"m 53 1121 l 225 1121 l 188 765 l 89 765 "},"　":{"ha":1389,"x_min":0,"x_max":0,"o":""}," ":{"ha":6250,"x_min":0,"x_max":0,"o":""}," ":{"ha":1389,"x_min":0,"x_max":0,"o":""}," ":{"ha":1389,"x_min":0,"x_max":0,"o":""}," ":{"ha":694,"x_min":0,"x_max":0,"o":""}," ":{"ha":694,"x_min":0,"x_max":0,"o":""}," ":{"ha":998,"x_min":0,"x_max":0,"o":""}," ":{"ha":347,"x_min":0,"x_max":0,"o":""}," ":{"ha":199,"x_min":0,"x_max":0,"o":""}," ":{"ha":326,"x_min":0,"x_max":0,"o":""}," ":{"ha":388,"x_min":0,"x_max":0,"o":""}," ":{"ha":231,"x_min":0,"x_max":0,"o":""}," ":{"ha":278,"x_min":0,"x_max":0,"o":""}," ":{"ha":463,"x_min":0,"x_max":0,"o":""},"​":{"ha":0,"x_min":0,"x_max":0,"o":""},"‍":{"ha":0,"x_min":0,"x_max":0,"o":""},"‌":{"ha":0,"x_min":0,"x_max":0,"o":""},"":{"ha":1351,"x_min":0,"x_max":0,"o":""},"฿":{"ha":884,"x_min":0,"x_max":0,"o":"m 597 616 b 858 333 720 616 858 503 b 514 0 858 165 731 0 l 481 0 l 481 -155 l 351 -155 l 351 0 l 105 0 l 105 1093 l 351 1093 l 351 1226 l 481 1226 l 481 1085 b 720 812 626 1054 720 937 b 597 616 720 694 637 616 m 351 926 l 276 926 l 276 654 l 351 654 m 559 790 b 481 911 559 844 526 888 l 481 669 b 559 790 528 690 559 736 m 498 168 b 690 345 597 168 690 239 b 496 503 690 427 620 503 l 481 503 l 481 168 l 498 168 m 351 168 l 351 503 l 276 503 l 276 168 "},"₿":{"ha":884,"x_min":0,"x_max":0,"o":"m 858 333 b 546 1 858 174 743 16 l 546 -148 l 436 -148 l 436 0 l 357 0 l 357 -148 l 248 -148 l 248 0 l 105 0 l 105 1093 l 248 1093 l 248 1246 l 357 1246 l 357 1093 l 404 1093 b 436 1092 414 1093 425 1093 l 436 1246 l 546 1246 l 546 1064 b 720 812 653 1017 720 917 b 597 616 720 694 637 616 b 858 333 720 616 858 503 m 276 926 l 276 654 l 412 654 b 559 790 496 654 559 712 b 414 926 559 868 491 926 m 498 168 b 690 345 597 168 690 239 b 496 503 690 427 620 503 l 276 503 l 276 168 l 498 168 "},"¢":{"ha":812,"x_min":0,"x_max":0,"o":"m 764 178 b 526 77 700 121 614 85 l 526 -64 l 386 -67 l 386 85 b 48 509 197 128 48 296 b 386 932 48 721 196 889 l 386 1085 l 526 1086 l 526 941 b 753 848 610 932 690 899 l 662 711 b 526 776 629 743 579 767 l 526 242 b 665 308 580 251 630 275 l 764 178 m 212 509 b 386 256 212 388 286 293 l 386 762 b 212 509 286 724 212 629 "},"¤":{"ha":821,"x_min":0,"x_max":0,"o":"m 680 547 b 629 392 680 489 661 436 l 766 255 l 699 189 l 562 327 b 411 281 519 298 467 281 b 257 331 354 281 300 299 l 119 195 l 53 261 l 192 397 b 146 545 163 439 146 490 b 195 700 146 603 164 656 l 59 838 l 125 905 l 262 766 b 412 813 304 795 356 813 b 565 766 469 813 522 795 l 702 901 l 769 834 l 632 699 b 680 547 662 655 680 603 m 412 414 b 545 547 486 414 545 474 b 409 680 545 624 479 680 b 279 547 337 680 279 621 b 412 414 279 473 340 414 "},"$":{"ha":852,"x_min":0,"x_max":0,"o":"m 810 300 b 498 -13 810 130 680 13 l 498 -155 l 368 -155 l 368 -16 b 42 192 214 -1 98 79 l 178 289 b 368 159 218 219 286 174 l 368 514 l 367 514 b 96 809 239 571 96 637 b 368 1105 96 963 211 1076 l 368 1226 l 498 1226 l 498 1110 b 766 918 629 1096 726 1025 l 638 829 b 498 939 611 888 558 926 l 498 634 l 503 632 b 810 300 676 556 810 473 m 269 805 b 368 691 269 753 307 721 l 368 930 b 269 805 309 907 269 859 m 498 163 b 638 297 581 182 638 232 b 498 454 638 363 576 412 l 498 163 "},"€":{"ha":1160,"x_min":0,"x_max":0,"o":"m 726 155 b 1008 285 838 155 933 210 l 1107 146 b 730 -18 1014 54 894 -18 b 178 418 465 -18 238 170 l 53 418 l 64 507 l 165 507 b 163 546 164 520 163 533 b 165 595 163 562 164 578 l 53 595 l 64 684 l 181 684 b 728 1112 244 928 469 1112 b 1107 945 869 1110 1000 1050 l 1008 810 b 724 938 932 887 831 938 b 363 684 571 938 422 833 l 850 684 l 839 595 l 340 595 b 337 545 338 578 337 562 b 339 507 337 532 338 519 l 832 507 l 821 418 l 359 418 b 726 155 416 262 569 155 "},"ƒ":{"ha":875,"x_min":0,"x_max":0,"o":"m 746 939 b 551 720 637 939 589 907 l 536 646 l 791 646 l 791 496 l 507 496 l 477 343 b 161 0 431 113 361 0 l 32 0 l 32 165 l 130 165 b 328 408 229 165 283 182 l 345 496 l 86 496 l 86 646 l 374 646 l 401 784 b 715 1104 445 1008 524 1104 l 844 1104 l 844 939 l 746 939 "},"₣":{"ha":787,"x_min":0,"x_max":0,"o":"m 277 925 l 277 633 l 690 633 l 690 462 l 277 462 l 277 323 l 532 323 l 532 199 l 277 199 l 277 -1 l 105 -1 l 105 199 l 7 199 l 7 323 l 105 323 l 105 1096 l 756 1096 l 756 925 "},"₭":{"ha":901,"x_min":0,"x_max":0,"o":"m 317 476 l 276 476 l 276 0 l 105 0 l 105 476 l 7 476 l 7 625 l 105 625 l 105 1093 l 276 1093 l 276 625 l 316 625 l 652 1093 l 851 1093 l 513 625 l 821 625 l 821 476 l 525 476 l 890 0 l 680 0 "},"₤":{"ha":819,"x_min":0,"x_max":0,"o":"m 766 155 l 766 0 l 56 0 l 56 155 l 141 155 b 210 376 189 226 210 303 l 57 376 l 57 490 l 189 490 b 168 557 182 511 175 534 l 57 557 l 57 671 l 146 671 b 144 712 145 684 144 698 b 540 1107 144 924 293 1107 b 750 1055 601 1107 685 1089 l 667 910 b 547 952 640 935 592 952 b 317 711 393 952 317 831 b 319 671 317 697 317 684 l 577 671 l 577 557 l 341 557 b 362 490 349 534 356 512 l 577 490 l 577 376 l 380 376 b 315 155 380 292 362 222 "},"₦":{"ha":1120,"x_min":0,"x_max":0,"o":"m 1113 476 l 1000 476 l 1000 -19 l 991 -19 l 517 476 l 292 476 l 292 -1 l 121 -1 l 121 476 l 7 476 l 7 625 l 121 625 l 121 1112 l 130 1112 l 595 625 l 827 625 l 827 1096 l 1000 1096 l 1000 625 l 1113 625 m 375 625 l 292 711 l 292 625 m 827 476 l 739 476 l 827 383 "},"₱":{"ha":1049,"x_min":0,"x_max":0,"o":"m 1018 766 l 889 766 b 890 732 890 755 890 744 b 889 706 890 724 890 715 l 1018 706 l 1018 593 l 859 593 b 506 379 800 467 664 379 l 312 379 l 312 0 l 140 0 l 140 593 l 32 593 l 32 706 l 140 706 l 140 766 l 32 766 l 32 879 l 140 879 l 140 1093 l 506 1093 b 857 879 662 1093 797 1005 l 1018 879 m 312 879 l 642 879 b 506 923 606 907 557 923 l 312 923 m 719 734 b 716 766 719 745 718 755 l 312 766 l 312 706 l 716 706 b 719 734 718 715 719 724 m 506 549 b 644 593 559 549 607 565 l 312 593 l 312 549 l 506 549 "},"₽":{"ha":1004,"x_min":0,"x_max":0,"o":"m 376 410 l 376 299 l 681 299 l 681 175 l 376 175 l 376 0 l 205 0 l 205 175 l 53 175 l 53 299 l 205 299 l 205 410 l 53 410 l 53 570 l 205 570 l 205 1093 l 567 1093 b 951 747 793 1093 951 931 b 551 410 951 553 779 410 m 376 580 l 567 579 b 780 749 699 579 780 646 b 567 923 780 838 699 923 l 376 923 "},"₨":{"ha":928,"x_min":0,"x_max":0,"o":"m 701 943 b 752 827 725 909 743 870 l 878 827 l 856 710 l 758 710 b 522 431 741 567 637 452 b 450 425 503 427 474 424 l 842 1 l 631 1 l 153 548 l 153 556 l 382 555 b 579 710 483 555 562 620 l 110 710 l 132 827 l 568 827 b 382 943 538 898 467 943 l 105 943 l 134 1093 l 880 1093 l 851 943 l 701 943 "},"£":{"ha":819,"x_min":0,"x_max":0,"o":"m 766 155 l 766 0 l 56 0 l 56 155 l 141 155 b 210 378 189 227 210 304 b 197 464 210 407 204 435 l 57 464 l 57 587 l 161 587 b 144 712 151 625 144 665 b 540 1107 144 924 293 1107 b 750 1055 601 1107 685 1089 l 667 910 b 547 952 640 935 592 952 b 317 711 393 952 317 831 b 333 587 317 663 323 623 l 577 587 l 577 464 l 370 464 b 380 378 376 437 380 409 b 315 155 380 294 362 222 "},"₸":{"ha":821,"x_min":0,"x_max":0,"o":"m 790 1093 l 790 928 l 32 928 l 32 1093 m 32 828 l 790 828 l 790 663 l 492 663 l 497 0 l 325 0 l 320 663 l 32 663 "},"₮":{"ha":821,"x_min":0,"x_max":0,"o":"m 497 923 l 497 700 l 686 797 l 686 681 l 497 584 l 497 482 l 686 579 l 686 463 l 497 366 l 497 0 l 325 0 l 325 277 l 138 182 l 138 298 l 325 393 l 325 495 l 138 399 l 138 515 l 325 611 l 325 923 l 32 923 l 32 1093 l 790 1093 l 790 923 "},"₩":{"ha":1314,"x_min":0,"x_max":0,"o":"m 1151 625 l 1292 625 l 1292 476 l 1104 476 l 951 -10 l 935 -10 l 728 476 l 583 476 l 379 -10 l 363 -10 l 210 476 l 22 476 l 22 625 l 163 625 l 16 1093 l 201 1093 l 341 625 l 486 625 l 654 1047 l 661 1047 l 829 625 l 972 625 l 1113 1093 l 1298 1093 m 665 625 l 655 649 l 645 625 m 427 476 l 386 476 l 404 418 m 928 476 l 888 476 l 911 419 "},"¥":{"ha":1001,"x_min":0,"x_max":0,"o":"m 652 583 l 928 583 l 928 450 l 585 450 l 585 359 l 928 359 l 928 226 l 585 226 l 585 0 l 415 0 l 415 226 l 81 226 l 81 359 l 415 359 l 415 450 l 81 450 l 81 583 l 348 583 l 53 1093 l 246 1093 l 500 658 l 755 1093 l 949 1093 "},"+":{"ha":871,"x_min":0,"x_max":0,"o":"m 766 430 l 515 430 l 515 138 l 356 138 l 356 430 l 105 430 l 105 589 l 356 589 l 356 880 l 515 880 l 515 589 l 766 589 "},"−":{"ha":857,"x_min":0,"x_max":0,"o":"m 105 589 l 751 589 l 751 430 l 105 430 "},"×":{"ha":916,"x_min":0,"x_max":0,"o":"m 703 165 l 458 423 l 214 165 l 106 265 l 357 530 l 105 795 l 213 896 l 458 638 l 703 897 l 810 795 l 560 531 l 811 267 "},"÷":{"ha":1062,"x_min":0,"x_max":0,"o":"m 520 741 b 406 856 457 741 406 793 b 519 970 406 919 458 970 b 635 855 582 970 635 916 b 520 741 635 794 583 742 m 105 594 l 957 594 l 957 450 l 105 450 m 519 65 b 406 180 458 65 406 117 b 519 294 406 244 459 294 b 635 180 581 294 635 241 b 519 65 635 119 583 65 "},"=":{"ha":916,"x_min":0,"x_max":0,"o":"m 105 788 l 810 788 l 810 637 l 105 637 m 105 418 l 810 418 l 810 267 l 105 267 "},"≠":{"ha":916,"x_min":0,"x_max":0,"o":"m 558 637 l 484 418 l 810 418 l 810 267 l 431 267 l 347 21 l 243 21 l 328 267 l 105 267 l 105 418 l 380 418 l 454 637 l 105 637 l 105 788 l 507 788 l 597 1052 l 701 1052 l 610 788 l 810 788 l 810 637 "},">":{"ha":864,"x_min":0,"x_max":0,"o":"m 111 313 l 516 559 l 111 804 l 105 984 l 759 566 l 759 552 l 111 133 "},"<":{"ha":864,"x_min":0,"x_max":0,"o":"m 105 552 l 105 566 l 759 984 l 754 804 l 348 559 l 754 313 l 754 133 "},"≥":{"ha":878,"x_min":0,"x_max":0,"o":"m 111 494 l 516 691 l 111 888 l 105 1031 l 759 696 l 759 686 l 111 351 m 110 84 l 110 208 l 773 208 l 773 84 "},"≤":{"ha":878,"x_min":0,"x_max":0,"o":"m 119 686 l 119 696 l 773 1031 l 768 888 l 362 691 l 768 494 l 768 351 m 105 208 l 769 208 l 769 84 l 105 84 "},"±":{"ha":814,"x_min":0,"x_max":0,"o":"m 709 753 l 709 608 l 488 608 l 488 379 l 328 379 l 328 608 l 105 608 l 105 753 l 328 753 l 328 961 l 488 961 l 488 753 m 105 288 l 709 288 l 709 152 l 105 152 "},"≈":{"ha":892,"x_min":0,"x_max":0,"o":"m 105 627 b 315 815 140 788 250 815 b 577 699 446 815 486 699 b 677 810 631 699 661 743 l 787 768 b 577 581 752 607 642 581 b 315 697 446 581 406 697 b 214 585 260 697 231 652 m 105 303 b 315 491 140 465 250 491 b 577 374 446 491 486 374 b 677 486 631 374 661 419 l 787 444 b 577 256 752 283 642 256 b 315 373 446 256 406 373 b 214 261 260 373 231 328 "},"~":{"ha":1017,"x_min":0,"x_max":0,"o":"m 105 456 b 351 675 146 644 274 675 b 659 538 505 675 552 538 b 778 669 722 538 758 591 l 905 621 b 659 401 864 432 736 401 b 351 538 505 401 458 538 b 232 406 287 538 252 486 "},"¬":{"ha":991,"x_min":0,"x_max":0,"o":"m 886 682 l 886 296 l 726 296 l 726 522 l 105 522 l 105 682 "},"^":{"ha":648,"x_min":0,"x_max":0,"o":"m 316 1138 l 330 1138 l 631 742 l 480 742 l 323 947 l 167 742 l 16 742 "},"∅":{"ha":1009,"x_min":0,"x_max":0,"o":"m 781 877 b 957 521 888 794 957 665 b 505 68 957 271 753 68 b 300 117 431 68 362 85 l 220 -10 l 90 -10 l 210 178 b 53 519 113 261 53 383 b 505 972 53 768 256 972 b 686 933 569 972 631 958 l 781 1084 l 911 1084 l 781 877 m 198 519 b 288 304 198 435 233 359 l 606 806 b 505 824 574 818 540 824 b 198 519 336 824 198 687 m 505 215 b 809 519 672 215 809 352 b 701 751 809 612 767 695 l 380 241 b 505 215 418 224 460 215 "},"∞":{"ha":1577,"x_min":0,"x_max":0,"o":"m 1166 918 b 1524 549 1363 918 1524 755 b 1166 180 1524 344 1363 180 b 788 399 1017 180 877 269 b 410 180 699 269 560 180 b 53 549 214 180 53 344 b 410 918 53 755 214 918 b 788 700 560 918 699 830 b 1166 918 877 830 1017 918 m 412 333 b 715 549 518 333 633 413 b 412 766 633 684 518 766 b 206 549 300 766 206 669 b 412 333 206 430 302 333 m 1165 333 b 1370 549 1274 333 1370 430 b 1165 766 1370 669 1276 766 b 862 549 1059 766 944 684 b 1165 333 944 413 1058 333 "},"∫":{"ha":807,"x_min":0,"x_max":0,"o":"m 32 -51 l 104 -51 b 264 123 186 -51 249 18 l 394 1029 b 672 1287 418 1197 517 1287 l 776 1287 l 776 1133 l 703 1133 b 543 959 619 1133 557 1063 l 412 53 b 135 -205 387 -115 290 -205 l 32 -205 "},"∏":{"ha":1013,"x_min":0,"x_max":0,"o":"m 981 1146 l 806 1146 l 806 -186 l 636 -186 l 636 1146 l 385 1146 l 385 -186 l 216 -186 l 216 1146 l 32 1146 l 32 1305 l 981 1305 "},"∑":{"ha":997,"x_min":0,"x_max":0,"o":"m 923 1129 l 302 1129 l 661 544 l 661 542 l 301 -44 l 922 -45 l 922 -203 l 16 -203 l 16 -193 l 467 543 l 16 1279 l 16 1289 l 923 1289 "},"√":{"ha":704,"x_min":0,"x_max":0,"o":"m 1009 1259 l 768 1259 l 327 -56 l 312 -56 l 16 787 l 180 787 l 317 347 l 660 1419 l 1009 1419 "},"µ":{"ha":904,"x_min":0,"x_max":0,"o":"m 808 814 l 808 374 b 509 -20 808 65 670 -20 b 260 92 405 -20 319 20 l 260 -305 l 97 -305 l 97 814 l 260 814 l 260 374 b 457 138 260 216 337 138 b 644 374 574 138 644 201 l 644 814 "},"∂":{"ha":864,"x_min":0,"x_max":0,"o":"m 428 -27 b 48 353 199 -27 48 144 b 404 732 48 565 199 732 b 666 575 526 732 637 671 b 346 1004 644 761 538 912 l 478 1103 b 815 437 641 1029 815 807 b 428 -27 815 157 662 -27 m 441 136 b 661 355 569 136 661 231 b 435 569 661 471 562 569 b 212 353 313 569 212 477 b 441 136 212 231 311 136 "},"%":{"ha":1186,"x_min":0,"x_max":0,"o":"m 306 600 b 53 852 168 600 53 713 b 307 1106 53 991 168 1106 b 559 853 445 1106 559 992 b 306 600 559 714 444 600 m 890 1094 l 1035 1094 l 290 0 l 144 0 m 306 713 b 446 852 383 713 446 776 b 306 993 446 930 383 993 b 165 852 228 993 165 930 b 306 713 165 776 228 713 m 880 -14 b 627 239 742 -14 627 100 b 880 493 627 379 742 493 b 1134 240 1019 493 1134 379 b 880 -14 1134 101 1019 -14 m 880 100 b 1019 240 958 100 1019 162 b 880 379 1019 317 958 379 b 739 239 802 379 739 317 b 880 100 739 162 802 100 "},"‰":{"ha":1733,"x_min":0,"x_max":0,"o":"m 306 600 b 53 852 168 600 53 713 b 307 1106 53 991 168 1106 b 559 853 445 1106 559 992 b 306 600 559 714 444 600 m 890 1094 l 1035 1094 l 290 0 l 144 0 m 306 713 b 446 852 383 713 446 776 b 306 993 446 930 383 993 b 165 852 228 993 165 930 b 306 713 165 776 228 713 m 880 -14 b 627 239 742 -14 627 100 b 880 493 627 379 742 493 b 1134 240 1019 493 1134 379 b 880 -14 1134 101 1019 -14 m 1427 -14 b 1174 239 1289 -14 1174 100 b 1428 493 1174 379 1289 493 b 1681 240 1566 493 1681 379 b 1427 -14 1681 101 1566 -14 m 880 100 b 1019 240 958 100 1019 162 b 880 379 1019 317 958 379 b 739 239 802 379 739 317 b 880 100 739 162 802 100 m 1427 100 b 1567 240 1504 100 1567 162 b 1427 379 1567 317 1504 379 b 1286 239 1349 379 1286 317 b 1427 100 1286 162 1349 100 "},"↑":{"ha":1457,"x_min":0,"x_max":0,"o":"m 1057 596 l 804 853 l 804 -68 l 655 -68 l 655 853 l 402 596 l 312 686 l 730 1118 l 1147 686 "},"↗":{"ha":1457,"x_min":0,"x_max":0,"o":"m 1174 954 l 1164 354 l 1037 354 l 1040 715 l 389 64 l 283 169 l 935 820 l 574 817 l 574 945 "},"→":{"ha":1457,"x_min":0,"x_max":0,"o":"m 1321 524 l 890 106 l 800 197 l 1057 450 l 136 450 l 136 599 l 1057 599 l 800 852 l 890 942 "},"↘":{"ha":1457,"x_min":0,"x_max":0,"o":"m 572 231 l 933 227 l 282 879 l 387 984 l 1039 333 l 1036 694 l 1164 694 l 1173 93 l 572 102 "},"↓":{"ha":1457,"x_min":0,"x_max":0,"o":"m 1147 362 l 730 -69 l 312 362 l 402 452 l 655 195 l 655 1116 l 804 1116 l 804 195 l 1057 452 "},"↙":{"ha":1457,"x_min":0,"x_max":0,"o":"m 549 239 l 909 242 l 909 115 l 309 105 l 319 705 l 446 705 l 444 345 l 1095 996 l 1200 890 "},"←":{"ha":1457,"x_min":0,"x_max":0,"o":"m 1321 450 l 400 450 l 657 197 l 567 106 l 136 524 l 567 942 l 657 852 l 400 599 l 1321 599 "},"↖":{"ha":1457,"x_min":0,"x_max":0,"o":"m 1095 52 l 444 704 l 446 343 l 319 343 l 309 943 l 909 934 l 909 806 l 549 809 l 1200 158 "},"↔":{"ha":1457,"x_min":0,"x_max":0,"o":"m 1375 524 l 944 106 l 854 197 l 1111 450 l 346 450 l 603 197 l 513 106 l 81 524 l 513 942 l 603 852 l 346 599 l 1111 599 l 854 852 l 944 942 "},"↕":{"ha":1457,"x_min":0,"x_max":0,"o":"m 728 -123 l 311 309 l 401 399 l 654 142 l 654 907 l 401 650 l 311 740 l 728 1171 l 1146 740 l 1056 650 l 803 907 l 803 142 l 1056 399 l 1146 309 "},"◊":{"ha":846,"x_min":0,"x_max":0,"o":"m 693 528 l 421 30 l 153 528 l 421 1027 m 584 528 l 421 833 l 262 528 l 421 224 "},"@":{"ha":1562,"x_min":0,"x_max":0,"o":"m 718 -312 b 53 314 260 -312 53 -8 b 880 1135 53 765 425 1135 b 1509 528 1272 1135 1509 862 b 1100 -14 1509 258 1347 -14 b 906 235 962 -14 899 85 b 695 101 892 157 791 101 b 473 352 560 101 473 205 b 768 705 473 534 594 705 b 939 581 861 704 939 649 l 976 699 l 1096 699 l 1044 279 b 1042 237 1042 264 1042 251 b 1129 117 1042 170 1065 117 b 1334 500 1263 117 1334 332 b 852 968 1334 807 1118 970 b 221 333 504 966 221 680 b 734 -153 221 57 417 -153 b 899 -122 795 -153 844 -145 l 944 -270 b 718 -312 869 -300 810 -312 m 749 237 b 919 430 848 237 919 329 b 789 568 919 506 873 568 b 612 378 688 568 612 477 b 749 237 612 299 664 237 "},"&":{"ha":1048,"x_min":0,"x_max":0,"o":"m 1016 -9 b 736 105 941 -9 841 35 b 427 -21 656 23 549 -21 b 53 320 179 -21 53 159 b 237 635 53 452 140 578 b 171 845 196 712 171 784 b 460 1120 171 981 296 1120 b 745 875 608 1120 724 1006 l 578 844 b 454 962 570 910 516 962 b 340 839 391 962 340 908 b 688 336 340 712 510 492 b 734 547 715 395 730 467 l 895 549 b 824 231 892 423 867 316 b 1017 150 899 180 966 150 m 418 147 b 599 211 489 147 550 170 b 319 509 495 299 395 404 b 216 331 254 463 216 402 b 418 147 216 227 286 147 "},"¶":{"ha":1051,"x_min":0,"x_max":0,"o":"m 153 798 b 483 1119 153 975 301 1119 l 667 1119 l 667 -59 l 546 -59 l 546 476 l 483 476 b 153 798 301 476 153 621 m 899 1119 l 899 -64 l 780 -64 l 780 1119 "},"§":{"ha":918,"x_min":0,"x_max":0,"o":"m 698 367 b 762 222 736 331 762 285 b 457 -41 762 62 622 -41 b 153 125 313 -41 197 37 l 245 231 b 463 119 290 163 368 119 b 598 212 530 119 598 146 b 404 355 598 281 505 315 b 181 592 311 391 181 452 b 252 748 181 654 206 708 b 184 898 213 784 184 832 b 470 1136 184 1042 319 1136 b 739 987 588 1136 701 1074 l 626 893 b 463 977 589 950 528 977 b 348 892 399 977 348 947 b 524 770 348 838 400 820 b 765 528 646 720 765 663 b 698 367 765 466 744 410 m 340 587 b 520 464 340 529 403 510 l 556 450 b 607 518 585 463 607 486 b 408 661 607 588 505 623 b 406 662 407 661 406 662 b 340 587 370 650 340 624 "},"©":{"ha":1179,"x_min":0,"x_max":0,"o":"m 590 -60 b 53 478 290 -60 53 178 b 590 1015 53 776 289 1015 b 1127 477 892 1015 1127 772 b 590 -60 1127 176 886 -60 m 590 26 b 1041 477 837 26 1041 230 b 590 929 1041 725 837 929 b 139 477 342 929 139 724 b 590 26 139 231 344 26 m 601 149 b 269 481 423 149 269 291 b 601 815 269 671 423 815 b 811 742 677 815 753 787 l 740 636 b 602 689 707 668 654 689 b 395 481 492 689 395 602 b 601 274 395 361 492 274 b 742 328 655 274 708 296 l 819 227 b 601 149 761 178 682 149 "},"®":{"ha":750,"x_min":0,"x_max":0,"o":"m 375 1093 b 692 777 553 1093 692 951 b 375 459 692 597 550 459 b 58 777 198 459 58 600 b 375 1093 58 952 197 1093 m 375 509 b 642 776 521 509 642 630 b 375 1043 642 922 521 1043 b 109 776 229 1043 109 922 b 375 509 109 630 230 509 m 492 840 b 424 745 492 796 463 758 l 524 610 l 463 610 l 364 750 l 319 763 l 319 610 l 269 610 l 269 949 l 378 949 b 492 840 441 949 492 901 m 378 782 b 442 840 413 782 442 808 b 378 901 442 873 413 901 l 318 901 l 318 782 "},"™":{"ha":884,"x_min":0,"x_max":0,"o":"m 865 1103 l 865 629 l 793 629 l 793 886 l 639 637 l 638 637 l 484 887 l 484 629 l 412 629 l 412 1103 l 417 1103 l 639 766 l 860 1103 m 36 1093 l 357 1093 l 357 1021 l 233 1021 l 233 629 l 160 629 l 160 1021 l 36 1021 "},"°":{"ha":467,"x_min":0,"x_max":0,"o":"m 233 748 b 48 932 133 748 48 832 b 233 1118 48 1034 132 1118 b 418 932 334 1118 418 1034 b 233 748 418 831 334 748 m 233 827 b 338 933 291 827 338 875 b 233 1039 338 991 290 1039 b 127 932 176 1039 127 991 b 233 827 127 876 174 827 "},"|":{"ha":427,"x_min":0,"x_max":0,"o":"m 161 1255 l 266 1255 l 266 -305 l 161 -305 "},"¦":{"ha":427,"x_min":0,"x_max":0,"o":"m 161 1255 l 266 1255 l 266 576 l 161 576 m 161 373 l 266 373 l 266 -305 l 161 -305 "},"†":{"ha":467,"x_min":0,"x_max":0,"o":"m 450 861 l 283 861 l 283 0 l 184 0 l 184 861 l 16 861 l 16 951 l 184 951 l 184 1119 l 283 1119 l 283 951 l 450 951 "},"‡":{"ha":467,"x_min":0,"x_max":0,"o":"m 283 861 l 283 258 l 450 258 l 450 168 l 283 168 l 283 0 l 184 0 l 184 168 l 16 168 l 16 258 l 184 258 l 184 861 l 16 861 l 16 951 l 184 951 l 184 1119 l 283 1119 l 283 951 l 450 951 l 450 861 "},"℮":{"ha":1319,"x_min":0,"x_max":0,"o":"m 680 -22 b 53 544 353 -22 53 222 b 684 1109 53 860 344 1109 b 1266 591 1015 1109 1266 872 b 1261 505 1266 562 1263 524 l 249 505 l 249 218 b 680 39 368 100 533 39 b 1145 281 887 39 1084 157 l 1211 281 b 680 -22 1148 138 947 -22 m 1083 581 l 1083 888 b 684 1049 986 983 848 1049 b 249 874 519 1049 361 982 l 249 581 "},"ʼ":{"ha":246,"x_min":0,"x_max":0,"o":"m 71 1119 l 231 1119 l 150 773 l 16 773 "},"̈":{"ha":0,"x_min":0,"x_max":0,"o":"m -359 937 b -431 1008 -397 937 -431 969 b -359 1080 -431 1046 -397 1080 b -288 1008 -320 1080 -288 1046 b -359 937 -288 969 -320 937 m -55 937 b -125 1008 -94 937 -125 969 b -55 1080 -125 1046 -93 1080 b 17 1008 -16 1080 17 1046 b -55 937 17 969 -16 937 "},"̇":{"ha":0,"x_min":0,"x_max":0,"o":"m -203 937 b -284 1018 -248 937 -284 974 b -203 1100 -284 1062 -248 1100 b -121 1018 -159 1100 -121 1062 b -203 937 -121 973 -159 937 "},"̀":{"ha":0,"x_min":0,"x_max":0,"o":"m -286 1126 l -134 1126 l 0 904 l -124 904 "},"́":{"ha":0,"x_min":0,"x_max":0,"o":"m -286 904 l -151 1126 l 0 1126 l -161 904 "},"̋":{"ha":0,"x_min":0,"x_max":0,"o":"m -362 1124 l -227 1124 l -359 903 l -467 903 m -111 1124 l 34 1124 l -140 903 l -254 903 "},"̂":{"ha":0,"x_min":0,"x_max":0,"o":"m -281 1112 l -184 1112 l 31 914 l -109 914 l -233 1031 l -355 914 l -494 914 "},"̌":{"ha":0,"x_min":0,"x_max":0,"o":"m -351 1112 l -229 996 l -105 1112 l 34 1112 l -181 914 l -277 914 l -490 1112 "},"̆":{"ha":0,"x_min":0,"x_max":0,"o":"m -204 916 b -398 1110 -311 916 -398 1003 l -315 1110 b -204 994 -315 1046 -265 994 b -92 1110 -142 994 -92 1046 l -9 1110 b -204 916 -9 1003 -97 916 "},"̊":{"ha":0,"x_min":0,"x_max":0,"o":"m -152 883 b -298 1029 -232 883 -298 949 b -152 1175 -298 1109 -232 1175 b -7 1029 -73 1175 -7 1109 b -152 883 -7 949 -73 883 m -152 956 b -80 1028 -112 956 -80 989 b -152 1101 -80 1068 -112 1101 b -224 1028 -192 1101 -224 1068 b -152 956 -224 989 -192 956 "},"̃":{"ha":0,"x_min":0,"x_max":0,"o":"m -533 958 b -369 1104 -506 1083 -420 1104 b -163 1012 -267 1104 -235 1012 b -84 1100 -121 1012 -98 1047 l 0 1067 b -164 921 -27 942 -113 921 b -369 1013 -267 921 -298 1013 b -448 924 -412 1013 -435 977 "},"̄":{"ha":0,"x_min":0,"x_max":0,"o":"m -397 1040 l -9 1040 l -9 950 l -397 950 "},"̒":{"ha":0,"x_min":0,"x_max":0,"o":"m -146 1190 b -104 1171 -120 1190 -104 1177 b -199 1075 -136 1171 -199 1145 b -190 1040 -199 1059 -197 1050 b -118 976 -157 1040 -118 1017 b -201 901 -118 936 -153 901 b -289 1010 -245 901 -289 936 b -146 1190 -289 1111 -224 1190 "},"̦":{"ha":0,"x_min":0,"x_max":0,"o":"m -260 -372 b -302 -353 -286 -372 -302 -359 b -207 -256 -270 -353 -207 -326 b -216 -222 -207 -241 -209 -232 b -288 -157 -249 -222 -288 -199 b -205 -83 -288 -117 -253 -83 b -117 -193 -160 -83 -117 -118 b -260 -372 -117 -293 -182 -372 "},"̧":{"ha":0,"x_min":0,"x_max":0,"o":"m -364 -248 b -176 -176 -233 -244 -176 -217 b -234 -138 -176 -155 -191 -138 b -274 -142 -245 -138 -259 -139 l -297 -112 l -199 18 l -112 18 l -183 -75 b -153 -73 -172 -74 -163 -73 b -58 -172 -98 -73 -58 -115 b -321 -353 -58 -267 -166 -350 "},"̨":{"ha":0,"x_min":0,"x_max":0,"o":"m -75 -345 b -180 -357 -113 -353 -149 -357 b -361 -210 -294 -357 -361 -302 b -162 16 -361 -101 -264 -16 l -82 0 b -237 -171 -177 -62 -237 -112 b -168 -236 -237 -191 -229 -236 b -96 -227 -155 -236 -127 -233 l -75 -345 "},"̵":{"ha":0,"x_min":0,"x_max":0,"o":"m -517 566 l 9 566 l 9 442 l -517 442 "},"̶":{"ha":0,"x_min":0,"x_max":0,"o":"m -707 610 l 289 610 l 289 486 l -707 486 "},"̷":{"ha":0,"x_min":0,"x_max":0,"o":"m -441 789 l 24 1122 l 24 984 l -441 652 "},"̸":{"ha":0,"x_min":0,"x_max":0,"o":"m -116 871 l 30 871 l -614 -71 l -760 -71 "},"¨":{"ha":407,"x_min":0,"x_max":0,"o":"m 48 937 b -24 1008 9 937 -24 969 b 48 1080 -24 1046 9 1080 b 119 1008 87 1080 119 1046 b 48 937 119 969 87 937 m 352 937 b 281 1008 313 937 281 969 b 352 1080 281 1046 314 1080 b 424 1008 391 1080 424 1046 b 352 937 424 969 391 937 "},"˙":{"ha":407,"x_min":0,"x_max":0,"o":"m 204 937 b 123 1018 159 937 123 974 b 204 1100 123 1062 159 1100 b 286 1018 248 1100 286 1062 b 204 937 286 973 248 937 "},"`":{"ha":407,"x_min":0,"x_max":0,"o":"m 0 1126 l 151 1126 l 286 904 l 161 904 "},"´":{"ha":407,"x_min":0,"x_max":0,"o":"m 0 904 l 134 1126 l 286 1126 l 124 904 "},"˝":{"ha":407,"x_min":0,"x_max":0,"o":"m 95 1124 l 230 1124 l 98 903 l -10 903 m 346 1124 l 491 1124 l 317 903 l 203 903 "},"ˆ":{"ha":407,"x_min":0,"x_max":0,"o":"m 182 1112 l 279 1112 l 494 914 l 354 914 l 231 1031 l 108 914 l -31 914 "},"ˇ":{"ha":407,"x_min":0,"x_max":0,"o":"m 112 1112 l 235 996 l 358 1112 l 497 1112 l 282 914 l 186 914 l -27 1112 "},"˘":{"ha":407,"x_min":0,"x_max":0,"o":"m 203 916 b 9 1110 96 916 9 1003 l 92 1110 b 203 994 92 1046 142 994 b 315 1110 264 994 315 1046 l 397 1110 b 203 916 397 1003 310 916 "},"˚":{"ha":407,"x_min":0,"x_max":0,"o":"m 152 883 b 6 1029 72 883 6 949 b 152 1175 6 1109 72 1175 b 297 1029 231 1175 297 1109 b 152 883 297 949 231 883 m 152 956 b 224 1028 192 956 224 989 b 152 1101 224 1068 192 1101 b 79 1028 112 1101 79 1068 b 152 956 79 989 112 956 "},"˜":{"ha":479,"x_min":0,"x_max":0,"o":"m 0 958 b 164 1104 27 1083 113 1104 b 370 1012 267 1104 298 1012 b 449 1100 412 1012 435 1047 l 533 1067 b 369 921 506 942 420 921 b 164 1013 267 921 235 1013 b 85 924 121 1013 98 977 "},"¯":{"ha":407,"x_min":0,"x_max":0,"o":"m 9 1040 l 397 1040 l 397 950 l 9 950 "},"¸":{"ha":407,"x_min":0,"x_max":0,"o":"m 43 -248 b 231 -176 174 -244 231 -217 b 173 -138 231 -155 216 -138 b 133 -142 161 -138 148 -139 l 110 -112 l 208 18 l 295 18 l 224 -75 b 254 -73 235 -74 243 -73 b 349 -172 309 -73 349 -115 b 86 -353 349 -267 241 -350 "},"˛":{"ha":407,"x_min":0,"x_max":0,"o":"m 332 -345 b 227 -357 294 -353 258 -357 b 46 -210 113 -357 46 -302 b 245 16 46 -101 143 -16 l 325 0 b 170 -171 230 -62 170 -112 b 239 -236 170 -191 178 -236 b 311 -227 252 -236 280 -233 l 332 -345 "}}}
